  0
SECTION
  2
HEADER
  9
$ACADVER
  1
AC1014
  9
$HANDSEED
  5
FFFF
  9
$MEASUREMENT
 70
     1
  0
ENDSEC
  0
SECTION
  2
TABLES
  0
TABLE
  2
VPORT
  5
8
330
0
100
AcDbSymbolTable
 70
     4
  0
VPORT
  5
2E
330
8
100
AcDbSymbolTableRecord
100
AcDbViewportTableRecord
  2
*ACTIVE
 70
     0
 10
0.0
 20
0.0
 11
1.0
 21
1.0
 12
210.0
 22
148.5
 13
0.0
 23
0.0
 14
10.0
 24
10.0
 15
10.0
 25
10.0
 16
0.0
 26
0.0
 36
1.0
 17
0.0
 27
0.0
 37
0.0
 40
341.0
 41
1.24
 42
50.0
 43
0.0
 44
0.0
 50
0.0
 51
0.0
 71
     0
 72
   100
 73
     1
 74
     3
 75
     0
 76
     0
 77
     0
 78
     0
  0
ENDTAB
  0
TABLE
  2
LTYPE
  5
5
330
0
100
AcDbSymbolTable
 70
     1
  0
LTYPE
  5
14
330
5
100
AcDbSymbolTableRecord
100
AcDbLinetypeTableRecord
  2
BYBLOCK
 70
     0
  3

 72
    65
 73
     0
 40
0.0
  0
LTYPE
  5
15
330
5
100
AcDbSymbolTableRecord
100
AcDbLinetypeTableRecord
  2
BYLAYER
 70
     0
  3

 72
    65
 73
     0
 40
0.0
  0
LTYPE
  5
16
330
5
100
AcDbSymbolTableRecord
100
AcDbLinetypeTableRecord
  2
CONTINUOUS
 70
     0
  3
Solid line
 72
    65
 73
     0
 40
0.0
  0
ENDTAB
  0
TABLE
  2
LAYER
  5
2
100
AcDbSymbolTable
 70
3
  0
LAYER
  5
50
100
AcDbSymbolTableRecord
100
AcDbLayerTableRecord
  2
0
 70
0
  6
CONTINUOUS
  0
LAYER
  5
51
100
AcDbSymbolTableRecord
100
AcDbLayerTableRecord
  2
Layer_1
 70
0
  6
CONTINUOUS
  0
LAYER
  5
52
100
AcDbSymbolTableRecord
100
AcDbLayerTableRecord
  2
overlay
 70
0
  6
CONTINUOUS
  0
ENDTAB
  0
TABLE
  2
STYLE
  5
3
330
0
100
AcDbSymbolTable
 70
     1
  0
STYLE
  5
11
330
3
100
AcDbSymbolTableRecord
100
AcDbTextStyleTableRecord
  2
STANDARD
 70
     0
 40
0.0
 41
1.0
 50
0.0
 71
     0
 42
2.5
  3
txt
  4

  0
ENDTAB
  0
TABLE
  2
VIEW
  5
6
330
0
100
AcDbSymbolTable
 70
     0
  0
ENDTAB
  0
TABLE
  2
UCS
  5
7
330
0
100
AcDbSymbolTable
 70
     0
  0
ENDTAB
  0
TABLE
  2
APPID
  5
9
330
0
100
AcDbSymbolTable
 70
     2
  0
APPID
  5
12
330
9
100
AcDbSymbolTableRecord
100
AcDbRegAppTableRecord
  2
ACAD
 70
     0
  0
ENDTAB
  0
TABLE
  2
DIMSTYLE
  5
A
330
0
100
AcDbSymbolTable
 70
     1
  0
DIMSTYLE
105
27
330
A
100
AcDbSymbolTableRecord
100
AcDbDimStyleTableRecord
  2
ISO-25
 70
     0
  3

  4

  5

  6

  7

 40
1.0
 41
2.5
 42
0.625
 43
3.75
 44
1.25
 45
0.0
 46
0.0
 47
0.0
 48
0.0
140
2.5
141
2.5
142
0.0
143
0.03937007874016
144
1.0
145
0.0
146
1.0
147
0.625
 71
     0
 72
     0
 73
     0
 74
     0
 75
     0
 76
     0
 77
     1
 78
     8
170
     0
171
     3
172
     1
173
     0
174
     0
175
     0
176
     0
177
     0
178
     0
270
     2
271
     2
272
     2
273
     2
274
     3
340
11
275
     0
280
     0
281
     0
282
     0
283
     0
284
     8
285
     0
286
     0
287
     3
288
     0
  0
ENDTAB
  0
TABLE
  2
BLOCK_RECORD
  5
1
330
0
100
AcDbSymbolTable
 70
     1
  0
BLOCK_RECORD
  5
1F
330
1
100
AcDbSymbolTableRecord
100
AcDbBlockTableRecord
  2
*MODEL_SPACE
  0
BLOCK_RECORD
  5
1B
330
1
100
AcDbSymbolTableRecord
100
AcDbBlockTableRecord
  2
*PAPER_SPACE
  0
ENDTAB
  0
ENDSEC
  0
SECTION
  2
BLOCKS
  0
BLOCK
  5
20
330
1F
100
AcDbEntity
  8
0
100
AcDbBlockBegin
  2
*MODEL_SPACE
 70
     0
 10
0.0
 20
0.0
 30
0.0
  3
*MODEL_SPACE
  1

  0
ENDBLK
  5
21
330
1F
100
AcDbEntity
  8
0
100
AcDbBlockEnd
  0
BLOCK
  5
1C
330
1B
100
AcDbEntity
 67
     1
  8
0
100
AcDbBlockBegin
  2
*PAPER_SPACE
  1

  0
ENDBLK
  5
1D
330
1B
100
AcDbEntity
 67
     1
  8
0
100
AcDbBlockEnd
  0
ENDSEC
  0
SECTION
  2
ENTITIES
  0
LINE
  5
100
100
AcDbEntity
  8
Layer_1
 62
7
100
AcDbLine
 10
88.546232
 20
647.965868
 30
0.0
 11
88.546232
 21
643.983732
 31
0.0
  0
LINE
  5
101
100
AcDbEntity
  8
Layer_1
 62
7
100
AcDbLine
 10
90.537296
 20
645.974804
 30
0.0
 11
86.555160
 21
645.974804
 31
0.0
  0
LINE
  5
102
100
AcDbEntity
  8
Layer_1
 62
7
100
AcDbLine
 10
0.000000
 20
364.252260
 30
0.0
 11
0.000000
 21
363.835076
 31
0.0
  0
LINE
  5
103
100
AcDbEntity
  8
Layer_1
 62
7
100
AcDbLine
 10
0.000000
 20
363.835076
 30
0.0
 11
0.000000
 21
0.000724
 31
0.0
  0
LINE
  5
104
100
AcDbEntity
  8
Layer_1
 62
7
100
AcDbLine
 10
0.000000
 20
0.000724
 30
0.0
 11
315.779688
 21
0.000724
 31
0.0
  0
LINE
  5
105
100
AcDbEntity
  8
Layer_1
 62
7
100
AcDbLine
 10
315.779688
 20
0.000724
 30
0.0
 11
315.779688
 21
364.252260
 31
0.0
  0
LINE
  5
106
100
AcDbEntity
  8
Layer_1
 62
7
100
AcDbLine
 10
315.779688
 20
364.252260
 30
0.0
 11
0.000000
 21
364.252260
 31
0.0
  0
LINE
  5
107
100
AcDbEntity
  8
Layer_1
 62
7
100
AcDbLine
 10
0.000000
 20
364.252260
 30
0.0
 11
0.000000
 21
364.252260
 31
0.0
  0
LINE
  5
108
100
AcDbEntity
  8
Layer_1
 62
7
100
AcDbLine
 10
0.832812
 20
363.419452
 30
0.0
 11
314.946872
 21
363.419452
 31
0.0
  0
LINE
  5
109
100
AcDbEntity
  8
Layer_1
 62
7
100
AcDbLine
 10
314.946872
 20
363.419452
 30
0.0
 11
314.946872
 21
0.831924
 31
0.0
  0
LINE
  5
10a
100
AcDbEntity
  8
Layer_1
 62
7
100
AcDbLine
 10
314.946872
 20
0.831924
 30
0.0
 11
0.832812
 21
0.831924
 31
0.0
  0
LINE
  5
10b
100
AcDbEntity
  8
Layer_1
 62
7
100
AcDbLine
 10
0.832812
 20
0.831924
 30
0.0
 11
0.832812
 21
363.419452
 31
0.0
  0
LINE
  5
10c
100
AcDbEntity
  8
Layer_1
 62
7
100
AcDbLine
 10
0.832812
 20
363.419452
 30
0.0
 11
0.832812
 21
363.419452
 31
0.0
  0
LINE
  5
10d
100
AcDbEntity
  8
Layer_1
 62
7
100
AcDbLine
 10
21.401562
 20
8.917924
 30
0.0
 11
21.401562
 21
8.917924
 31
0.0
  0
SPLINE
  5
10e
100
AcDbEntity
  8
Layer_1
 62
7
100
AcDbSpline
 70
0
 71
3
 72
19
 73
15
 74
13
 40
0.000000
 40
0.000000
 40
0.000000
 40
0.000000
 40
0.142121
 40
0.280960
 40
0.422820
 40
0.565026
 40
0.704394
 40
0.846624
 40
0.988853
 40
1.128221
 40
1.270427
 40
1.412288
 40
1.551127
 40
1.693247
 40
1.693247
 40
1.693247
 40
1.693247
 10
21.401562
 20
8.917924
 30
0.0
 10
21.353703
 20
8.910284
 30
0.0
 10
21.259089
 20
8.895182
 30
0.0
 10
21.154704
 20
8.787410
 30
0.0
 10
21.114670
 20
8.646123
 30
0.0
 10
21.154810
 20
8.503255
 30
0.0
 10
21.258857
 20
8.399268
 30
0.0
 10
21.401562
 20
8.359076
 30
0.0
 10
21.544268
 20
8.399268
 30
0.0
 10
21.648315
 20
8.503255
 30
0.0
 10
21.688455
 20
8.646123
 30
0.0
 10
21.648421
 20
8.787410
 30
0.0
 10
21.544036
 20
8.895182
 30
0.0
 10
21.449422
 20
8.910284
 30
0.0
 10
21.401562
 20
8.917924
 30
0.0
 11
21.401562
 21
8.917924
 31
0.0
 11
21.264445
 21
8.880546
 31
0.0
 11
21.165903
 21
8.782742
 31
0.0
 11
21.128125
 21
8.646004
 31
0.0
 11
21.165903
 21
8.508907
 31
0.0
 11
21.264445
 21
8.410353
 31
0.0
 11
21.401562
 21
8.372564
 31
0.0
 11
21.538680
 21
8.410353
 31
0.0
 11
21.637222
 21
8.508907
 31
0.0
 11
21.675000
 21
8.646004
 31
0.0
 11
21.637222
 21
8.782742
 31
0.0
 11
21.538680
 21
8.880546
 31
0.0
 11
21.401562
 21
8.917924
 31
0.0
  0
LINE
  5
10f
100
AcDbEntity
  8
Layer_1
 62
7
100
AcDbLine
 10
21.401562
 20
8.656964
 30
0.0
 11
21.401562
 21
8.656964
 31
0.0
  0
SPLINE
  5
110
100
AcDbEntity
  8
Layer_1
 62
7
100
AcDbSpline
 70
0
 71
3
 72
19
 73
15
 74
13
 40
0.000000
 40
0.000000
 40
0.000000
 40
0.000000
 40
0.005172
 40
0.011556
 40
0.016285
 40
0.023018
 40
0.028657
 40
0.033499
 40
0.038671
 40
0.045056
 40
0.049785
 40
0.056517
 40
0.062157
 40
0.066998
 40
0.066998
 40
0.066998
 40
0.066998
 10
21.401562
 20
8.656964
 30
0.0
 10
21.403200
 20
8.656343
 30
0.0
 10
21.406859
 20
8.654957
 30
0.0
 10
21.410409
 20
8.650672
 30
0.0
 10
21.413413
 20
8.645262
 30
0.0
 10
21.411232
 20
8.639152
 30
0.0
 10
21.406722
 20
8.635553
 30
0.0
 10
21.401375
 20
8.633845
 30
0.0
 10
21.396295
 20
8.636837
 30
0.0
 10
21.392709
 20
8.640796
 30
0.0
 10
21.389716
 20
8.646299
 30
0.0
 10
21.391884
 20
8.652295
 30
0.0
 10
21.396427
 20
8.656191
 30
0.0
 10
21.399940
 20
8.656720
 30
0.0
 10
21.401562
 20
8.656964
 30
0.0
 11
21.401562
 21
8.656964
 31
0.0
 11
21.406247
 21
8.654771
 31
0.0
 11
21.410588
 21
8.650090
 31
0.0
 11
21.412498
 21
8.645764
 31
0.0
 11
21.410600
 21
8.639305
 31
0.0
 11
21.406271
 21
8.635690
 31
0.0
 11
21.401562
 21
8.634564
 31
0.0
 11
21.396878
 21
8.636756
 31
0.0
 11
21.392537
 21
8.641438
 31
0.0
 11
21.390626
 21
8.645764
 31
0.0
 11
21.392525
 21
8.652223
 31
0.0
 11
21.396853
 21
8.655838
 31
0.0
 11
21.401562
 21
8.656964
 31
0.0
  0
LINE
  5
111
100
AcDbEntity
  8
Layer_1
 62
7
100
AcDbLine
 10
294.945312
 20
356.163204
 30
0.0
 11
294.945312
 21
356.163204
 31
0.0
  0
SPLINE
  5
112
100
AcDbEntity
  8
Layer_1
 62
7
100
AcDbSpline
 70
0
 71
3
 72
19
 73
15
 74
13
 40
0.000000
 40
0.000000
 40
0.000000
 40
0.000000
 40
0.142227
 40
0.281588
 40
0.423815
 40
0.566042
 40
0.705404
 40
0.847630
 40
0.989466
 40
1.128294
 40
1.270414
 40
1.412533
 40
1.551362
 40
1.693197
 40
1.693197
 40
1.693197
 40
1.693197
 10
294.945312
 20
356.163204
 30
0.0
 10
294.897423
 20
356.155436
 30
0.0
 10
294.802610
 20
356.140057
 30
0.0
 10
294.698545
 20
356.031507
 30
0.0
 10
294.658400
 20
355.890023
 30
0.0
 10
294.698544
 20
355.746993
 30
0.0
 10
294.802615
 20
355.643022
 30
0.0
 10
294.945162
 20
355.602860
 30
0.0
 10
295.087636
 20
355.642926
 30
0.0
 10
295.190991
 20
355.747228
 30
0.0
 10
295.230434
 20
355.890023
 30
0.0
 10
295.190992
 20
356.031276
 30
0.0
 10
295.087632
 20
356.140129
 30
0.0
 10
294.993089
 20
356.155457
 30
0.0
 10
294.945312
 20
356.163204
 30
0.0
 11
294.945312
 21
356.163204
 31
0.0
 11
294.808194
 21
356.125425
 31
0.0
 11
294.709651
 21
356.026881
 31
0.0
 11
294.671872
 21
355.889764
 31
0.0
 11
294.709651
 21
355.752646
 31
0.0
 11
294.808194
 21
355.654103
 31
0.0
 11
294.945312
 21
355.616324
 31
0.0
 11
295.082023
 21
355.654103
 31
0.0
 11
295.179812
 21
355.752646
 31
0.0
 11
295.217184
 21
355.889764
 31
0.0
 11
295.179812
 21
356.026881
 31
0.0
 11
295.082023
 21
356.125425
 31
0.0
 11
294.945312
 21
356.163204
 31
0.0
  0
LINE
  5
113
100
AcDbEntity
  8
Layer_1
 62
7
100
AcDbLine
 10
294.945312
 20
355.900700
 30
0.0
 11
294.945312
 21
355.900700
 31
0.0
  0
SPLINE
  5
114
100
AcDbEntity
  8
Layer_1
 62
7
100
AcDbSpline
 70
0
 71
3
 72
19
 73
15
 74
13
 40
0.000000
 40
0.000000
 40
0.000000
 40
0.000000
 40
0.004968
 40
0.011086
 40
0.016331
 40
0.021299
 40
0.027418
 40
0.032663
 40
0.037631
 40
0.043749
 40
0.048994
 40
0.053962
 40
0.060081
 40
0.065326
 40
0.065326
 40
0.065326
 40
0.065326
 10
294.945312
 20
355.900700
 30
0.0
 10
294.946919
 20
355.900197
 30
0.0
 10
294.950505
 20
355.899077
 30
0.0
 10
294.954310
 20
355.895069
 30
0.0
 10
294.957152
 20
355.889840
 30
0.0
 10
294.954366
 20
355.884544
 30
0.0
 10
294.950710
 20
355.880742
 30
0.0
 10
294.945396
 20
355.877899
 30
0.0
 10
294.940121
 20
355.880687
 30
0.0
 10
294.936313
 20
355.884336
 30
0.0
 10
294.933472
 20
355.889674
 30
0.0
 10
294.936257
 20
355.894863
 30
0.0
 10
294.939916
 20
355.899036
 30
0.0
 10
294.943608
 20
355.900174
 30
0.0
 10
294.945312
 20
355.900700
 30
0.0
 11
294.945312
 21
355.900700
 31
0.0
 11
294.949931
 21
355.898872
 31
0.0
 11
294.954319
 21
355.894608
 31
0.0
 11
294.956272
 21
355.889740
 31
0.0
 11
294.954444
 21
355.885121
 31
0.0
 11
294.950180
 21
355.880732
 31
0.0
 11
294.945312
 21
355.878780
 31
0.0
 11
294.940693
 21
355.880608
 31
0.0
 11
294.936305
 21
355.884872
 31
0.0
 11
294.934352
 21
355.889740
 31
0.0
 11
294.936180
 21
355.894359
 31
0.0
 11
294.940444
 21
355.898747
 31
0.0
 11
294.945312
 21
355.900700
 31
0.0
  0
LINE
  5
115
100
AcDbEntity
  8
Layer_1
 62
7
100
AcDbLine
 10
294.945312
 20
8.917924
 30
0.0
 11
294.945312
 21
8.917924
 31
0.0
  0
SPLINE
  5
116
100
AcDbEntity
  8
Layer_1
 62
7
100
AcDbSpline
 70
0
 71
3
 72
19
 73
15
 74
13
 40
0.000000
 40
0.000000
 40
0.000000
 40
0.000000
 40
0.141729
 40
0.280034
 40
0.421787
 40
0.563886
 40
0.702722
 40
0.844560
 40
0.986789
 40
1.126158
 40
1.268365
 40
1.410226
 40
1.549065
 40
1.691186
 40
1.691186
 40
1.691186
 40
1.691186
 10
294.945312
 20
8.917924
 30
0.0
 10
294.993060
 20
8.910306
 30
0.0
 10
295.087403
 20
8.895254
 30
0.0
 10
295.191085
 20
8.787179
 30
0.0
 10
295.230417
 20
8.646123
 30
0.0
 10
295.190978
 20
8.503488
 30
0.0
 10
295.087640
 20
8.399178
 30
0.0
 10
294.945162
 20
8.359094
 30
0.0
 10
294.802611
 20
8.399273
 30
0.0
 10
294.698557
 20
8.503253
 30
0.0
 10
294.658417
 20
8.646124
 30
0.0
 10
294.698452
 20
8.787410
 30
0.0
 10
294.802838
 20
8.895182
 30
0.0
 10
294.897452
 20
8.910284
 30
0.0
 10
294.945312
 20
8.917924
 30
0.0
 11
294.945312
 21
8.917924
 31
0.0
 11
295.082023
 21
8.880546
 31
0.0
 11
295.179812
 21
8.782742
 31
0.0
 11
295.217184
 21
8.646004
 31
0.0
 11
295.179812
 21
8.508907
 31
0.0
 11
295.082023
 21
8.410353
 31
0.0
 11
294.945312
 21
8.372564
 31
0.0
 11
294.808194
 21
8.410353
 31
0.0
 11
294.709651
 21
8.508907
 31
0.0
 11
294.671872
 21
8.646004
 31
0.0
 11
294.709651
 21
8.782742
 31
0.0
 11
294.808194
 21
8.880546
 31
0.0
 11
294.945312
 21
8.917924
 31
0.0
  0
LINE
  5
117
100
AcDbEntity
  8
Layer_1
 62
7
100
AcDbLine
 10
294.945312
 20
8.656964
 30
0.0
 11
294.945312
 21
8.656964
 31
0.0
  0
SPLINE
  5
118
100
AcDbEntity
  8
Layer_1
 62
7
100
AcDbSpline
 70
0
 71
3
 72
19
 73
15
 74
13
 40
0.000000
 40
0.000000
 40
0.000000
 40
0.000000
 40
0.005113
 40
0.011530
 40
0.016276
 40
0.022989
 40
0.028579
 40
0.033575
 40
0.038689
 40
0.045105
 40
0.049851
 40
0.056564
 40
0.062154
 40
0.067151
 40
0.067151
 40
0.067151
 40
0.067151
 10
294.945312
 20
8.656964
 30
0.0
 10
294.943700
 20
8.656338
 30
0.0
 10
294.940065
 20
8.654926
 30
0.0
 10
294.936492
 20
8.650676
 30
0.0
 10
294.933438
 20
8.645282
 30
0.0
 10
294.935540
 20
8.639171
 30
0.0
 10
294.940043
 20
8.635503
 30
0.0
 10
294.945441
 20
8.633838
 30
0.0
 10
294.950527
 20
8.636862
 30
0.0
 10
294.954140
 20
8.640793
 30
0.0
 10
294.957182
 20
8.646279
 30
0.0
 10
294.955094
 20
8.652277
 30
0.0
 10
294.950554
 20
8.656241
 30
0.0
 10
294.946993
 20
8.656732
 30
0.0
 10
294.945312
 20
8.656964
 30
0.0
 11
294.945312
 21
8.656964
 31
0.0
 11
294.940693
 21
8.654771
 31
0.0
 11
294.936305
 21
8.650090
 31
0.0
 11
294.934352
 21
8.645764
 31
0.0
 11
294.936180
 21
8.639305
 31
0.0
 11
294.940444
 21
8.635690
 31
0.0
 11
294.945312
 21
8.634564
 31
0.0
 11
294.949931
 21
8.636756
 31
0.0
 11
294.954319
 21
8.641438
 31
0.0
 11
294.956272
 21
8.645764
 31
0.0
 11
294.954444
 21
8.652223
 31
0.0
 11
294.950180
 21
8.655838
 31
0.0
 11
294.945312
 21
8.656964
 31
0.0
  0
LINE
  5
119
100
AcDbEntity
  8
Layer_1
 62
7
100
AcDbLine
 10
21.401562
 20
356.163204
 30
0.0
 11
21.401562
 21
356.163204
 31
0.0
  0
SPLINE
  5
11a
100
AcDbEntity
  8
Layer_1
 62
7
100
AcDbSpline
 70
0
 71
3
 72
19
 73
15
 74
13
 40
0.000000
 40
0.000000
 40
0.000000
 40
0.000000
 40
0.142227
 40
0.281587
 40
0.423814
 40
0.566041
 40
0.705401
 40
0.847628
 40
0.989854
 40
1.129215
 40
1.271442
 40
1.413668
 40
1.553029
 40
1.695255
 40
1.695255
 40
1.695255
 40
1.695255
 10
21.401562
 20
356.163204
 30
0.0
 10
21.449451
 20
356.155436
 30
0.0
 10
21.544264
 20
356.140058
 30
0.0
 10
21.648328
 20
356.031507
 30
0.0
 10
21.688472
 20
355.890023
 30
0.0
 10
21.648328
 20
355.746994
 30
0.0
 10
21.544264
 20
355.643016
 30
0.0
 10
21.401562
 20
355.602842
 30
0.0
 10
21.258861
 20
355.643016
 30
0.0
 10
21.154797
 20
355.746994
 30
0.0
 10
21.114653
 20
355.890023
 30
0.0
 10
21.154797
 20
356.031507
 30
0.0
 10
21.258861
 20
356.140058
 30
0.0
 10
21.353674
 20
356.155436
 30
0.0
 10
21.401562
 20
356.163204
 30
0.0
 11
21.401562
 21
356.163204
 31
0.0
 11
21.538680
 21
356.125425
 31
0.0
 11
21.637222
 21
356.026881
 31
0.0
 11
21.675000
 21
355.889764
 31
0.0
 11
21.637222
 21
355.752646
 31
0.0
 11
21.538680
 21
355.654103
 31
0.0
 11
21.401562
 21
355.616324
 31
0.0
 11
21.264445
 21
355.654103
 31
0.0
 11
21.165903
 21
355.752646
 31
0.0
 11
21.128125
 21
355.889764
 31
0.0
 11
21.165903
 21
356.026881
 31
0.0
 11
21.264445
 21
356.125425
 31
0.0
 11
21.401562
 21
356.163204
 31
0.0
  0
LINE
  5
11b
100
AcDbEntity
  8
Layer_1
 62
7
100
AcDbLine
 10
21.401562
 20
355.900700
 30
0.0
 11
21.401562
 21
355.900700
 31
0.0
  0
SPLINE
  5
11c
100
AcDbEntity
  8
Layer_1
 62
7
100
AcDbSpline
 70
0
 71
3
 72
19
 73
15
 74
13
 40
0.000000
 40
0.000000
 40
0.000000
 40
0.000000
 40
0.005028
 40
0.011113
 40
0.016343
 40
0.021337
 40
0.027501
 40
0.032598
 40
0.037627
 40
0.043711
 40
0.048941
 40
0.053935
 40
0.060099
 40
0.065197
 40
0.065197
 40
0.065197
 40
0.065197
 10
21.401562
 20
355.900700
 30
0.0
 10
21.399930
 20
355.900203
 30
0.0
 10
21.396324
 20
355.899105
 30
0.0
 10
21.392540
 20
355.895062
 30
0.0
 10
21.389736
 20
355.889817
 30
0.0
 10
21.392619
 20
355.884536
 30
0.0
 10
21.396288
 20
355.880806
 30
0.0
 10
21.401531
 20
355.877895
 30
0.0
 10
21.406804
 20
355.880666
 30
0.0
 10
21.410584
 20
355.884340
 30
0.0
 10
21.413389
 20
355.889697
 30
0.0
 10
21.410505
 20
355.894869
 30
0.0
 10
21.406839
 20
355.898974
 30
0.0
 10
21.403207
 20
355.900162
 30
0.0
 10
21.401562
 20
355.900700
 30
0.0
 11
21.401562
 21
355.900700
 31
0.0
 11
21.396878
 21
355.898872
 31
0.0
 11
21.392537
 21
355.894608
 31
0.0
 11
21.390626
 21
355.889740
 31
0.0
 11
21.392525
 21
355.885121
 31
0.0
 11
21.396853
 21
355.880732
 31
0.0
 11
21.401562
 21
355.878780
 31
0.0
 11
21.406247
 21
355.880608
 31
0.0
 11
21.410588
 21
355.884872
 31
0.0
 11
21.412498
 21
355.889740
 31
0.0
 11
21.410600
 21
355.894359
 31
0.0
 11
21.406271
 21
355.898747
 31
0.0
 11
21.401562
 21
355.900700
 31
0.0
  0
ENDSEC
  0
SECTION
  2
OBJECTS
  0
DICTIONARY
  5
C
330
0
100
AcDbDictionary
  3
ACAD_GROUP
350
D
  3
ACAD_MLINESTYLE
350
17
  0
DICTIONARY
  5
D
330
C
100
AcDbDictionary
  0
DICTIONARY
  5
1A
330
C
100
AcDbDictionary
  0
DICTIONARY
  5
17
330
C
100
AcDbDictionary
  3
STANDARD
350
18
  0
DICTIONARY
  5
19
330
C
100
AcDbDictionary
  0
ENDSEC
  0
EOF
