  0
SECTION
  2
HEADER
  9
$ACADVER
  1
AC1014
  9
$HANDSEED
  5
FFFF
  9
$MEASUREMENT
 70
     1
  0
ENDSEC
  0
SECTION
  2
TABLES
  0
TABLE
  2
VPORT
  5
8
330
0
100
AcDbSymbolTable
 70
     4
  0
VPORT
  5
2E
330
8
100
AcDbSymbolTableRecord
100
AcDbViewportTableRecord
  2
*ACTIVE
 70
     0
 10
0.0
 20
0.0
 11
1.0
 21
1.0
 12
210.0
 22
148.5
 13
0.0
 23
0.0
 14
10.0
 24
10.0
 15
10.0
 25
10.0
 16
0.0
 26
0.0
 36
1.0
 17
0.0
 27
0.0
 37
0.0
 40
341.0
 41
1.24
 42
50.0
 43
0.0
 44
0.0
 50
0.0
 51
0.0
 71
     0
 72
   100
 73
     1
 74
     3
 75
     0
 76
     0
 77
     0
 78
     0
  0
ENDTAB
  0
TABLE
  2
LTYPE
  5
5
330
0
100
AcDbSymbolTable
 70
     1
  0
LTYPE
  5
14
330
5
100
AcDbSymbolTableRecord
100
AcDbLinetypeTableRecord
  2
BYBLOCK
 70
     0
  3

 72
    65
 73
     0
 40
0.0
  0
LTYPE
  5
15
330
5
100
AcDbSymbolTableRecord
100
AcDbLinetypeTableRecord
  2
BYLAYER
 70
     0
  3

 72
    65
 73
     0
 40
0.0
  0
LTYPE
  5
16
330
5
100
AcDbSymbolTableRecord
100
AcDbLinetypeTableRecord
  2
CONTINUOUS
 70
     0
  3
Solid line
 72
    65
 73
     0
 40
0.0
  0
ENDTAB
  0
TABLE
  2
LAYER
  5
2
100
AcDbSymbolTable
 70
3
  0
LAYER
  5
50
100
AcDbSymbolTableRecord
100
AcDbLayerTableRecord
  2
0
 70
0
  6
CONTINUOUS
  0
LAYER
  5
51
100
AcDbSymbolTableRecord
100
AcDbLayerTableRecord
  2
Layer_1
 70
0
  6
CONTINUOUS
  0
LAYER
  5
52
100
AcDbSymbolTableRecord
100
AcDbLayerTableRecord
  2
overlay
 70
0
  6
CONTINUOUS
  0
ENDTAB
  0
TABLE
  2
STYLE
  5
3
330
0
100
AcDbSymbolTable
 70
     1
  0
STYLE
  5
11
330
3
100
AcDbSymbolTableRecord
100
AcDbTextStyleTableRecord
  2
STANDARD
 70
     0
 40
0.0
 41
1.0
 50
0.0
 71
     0
 42
2.5
  3
txt
  4

  0
ENDTAB
  0
TABLE
  2
VIEW
  5
6
330
0
100
AcDbSymbolTable
 70
     0
  0
ENDTAB
  0
TABLE
  2
UCS
  5
7
330
0
100
AcDbSymbolTable
 70
     0
  0
ENDTAB
  0
TABLE
  2
APPID
  5
9
330
0
100
AcDbSymbolTable
 70
     2
  0
APPID
  5
12
330
9
100
AcDbSymbolTableRecord
100
AcDbRegAppTableRecord
  2
ACAD
 70
     0
  0
ENDTAB
  0
TABLE
  2
DIMSTYLE
  5
A
330
0
100
AcDbSymbolTable
 70
     1
  0
DIMSTYLE
105
27
330
A
100
AcDbSymbolTableRecord
100
AcDbDimStyleTableRecord
  2
ISO-25
 70
     0
  3

  4

  5

  6

  7

 40
1.0
 41
2.5
 42
0.625
 43
3.75
 44
1.25
 45
0.0
 46
0.0
 47
0.0
 48
0.0
140
2.5
141
2.5
142
0.0
143
0.03937007874016
144
1.0
145
0.0
146
1.0
147
0.625
 71
     0
 72
     0
 73
     0
 74
     0
 75
     0
 76
     0
 77
     1
 78
     8
170
     0
171
     3
172
     1
173
     0
174
     0
175
     0
176
     0
177
     0
178
     0
270
     2
271
     2
272
     2
273
     2
274
     3
340
11
275
     0
280
     0
281
     0
282
     0
283
     0
284
     8
285
     0
286
     0
287
     3
288
     0
  0
ENDTAB
  0
TABLE
  2
BLOCK_RECORD
  5
1
330
0
100
AcDbSymbolTable
 70
     1
  0
BLOCK_RECORD
  5
1F
330
1
100
AcDbSymbolTableRecord
100
AcDbBlockTableRecord
  2
*MODEL_SPACE
  0
BLOCK_RECORD
  5
1B
330
1
100
AcDbSymbolTableRecord
100
AcDbBlockTableRecord
  2
*PAPER_SPACE
  0
ENDTAB
  0
ENDSEC
  0
SECTION
  2
BLOCKS
  0
BLOCK
  5
20
330
1F
100
AcDbEntity
  8
0
100
AcDbBlockBegin
  2
*MODEL_SPACE
 70
     0
 10
0.0
 20
0.0
 30
0.0
  3
*MODEL_SPACE
  1

  0
ENDBLK
  5
21
330
1F
100
AcDbEntity
  8
0
100
AcDbBlockEnd
  0
BLOCK
  5
1C
330
1B
100
AcDbEntity
 67
     1
  8
0
100
AcDbBlockBegin
  2
*PAPER_SPACE
  1

  0
ENDBLK
  5
1D
330
1B
100
AcDbEntity
 67
     1
  8
0
100
AcDbBlockEnd
  0
ENDSEC
  0
SECTION
  2
ENTITIES
  0
LINE
  5
100
100
AcDbEntity
  8
Layer_1
 62
7
100
AcDbLine
 10
31.237143
 20
228.587959
 30
0.0
 11
31.237143
 21
227.183150
 31
0.0
  0
LINE
  5
101
100
AcDbEntity
  8
Layer_1
 62
7
100
AcDbLine
 10
31.939546
 20
227.885556
 30
0.0
 11
30.534737
 21
227.885556
 31
0.0
  0
LINE
  5
102
100
AcDbEntity
  8
Layer_1
 62
7
100
AcDbLine
 10
0.000000
 20
128.500103
 30
0.0
 11
0.000000
 21
128.352930
 31
0.0
  0
LINE
  5
103
100
AcDbEntity
  8
Layer_1
 62
7
100
AcDbLine
 10
0.000000
 20
128.352930
 30
0.0
 11
0.000000
 21
0.000255
 31
0.0
  0
LINE
  5
104
100
AcDbEntity
  8
Layer_1
 62
7
100
AcDbLine
 10
0.000000
 20
0.000255
 30
0.0
 11
111.400057
 21
0.000255
 31
0.0
  0
LINE
  5
105
100
AcDbEntity
  8
Layer_1
 62
7
100
AcDbLine
 10
111.400057
 20
0.000255
 30
0.0
 11
111.400057
 21
128.500103
 31
0.0
  0
LINE
  5
106
100
AcDbEntity
  8
Layer_1
 62
7
100
AcDbLine
 10
111.400057
 20
128.500103
 30
0.0
 11
0.000000
 21
128.500103
 31
0.0
  0
LINE
  5
107
100
AcDbEntity
  8
Layer_1
 62
7
100
AcDbLine
 10
0.000000
 20
128.500103
 30
0.0
 11
0.000000
 21
128.500103
 31
0.0
  0
LINE
  5
108
100
AcDbEntity
  8
Layer_1
 62
7
100
AcDbLine
 10
0.293798
 20
128.206307
 30
0.0
 11
111.106258
 21
128.206307
 31
0.0
  0
LINE
  5
109
100
AcDbEntity
  8
Layer_1
 62
7
100
AcDbLine
 10
111.106258
 20
128.206307
 30
0.0
 11
111.106258
 21
0.293484
 31
0.0
  0
LINE
  5
10a
100
AcDbEntity
  8
Layer_1
 62
7
100
AcDbLine
 10
111.106258
 20
0.293484
 30
0.0
 11
0.293798
 21
0.293484
 31
0.0
  0
LINE
  5
10b
100
AcDbEntity
  8
Layer_1
 62
7
100
AcDbLine
 10
0.293798
 20
0.293484
 30
0.0
 11
0.293798
 21
128.206307
 31
0.0
  0
LINE
  5
10c
100
AcDbEntity
  8
Layer_1
 62
7
100
AcDbLine
 10
0.293798
 20
128.206307
 30
0.0
 11
0.293798
 21
128.206307
 31
0.0
  0
SPLINE
  5
10d
100
AcDbEntity
  8
Layer_1
 62
7
100
AcDbSpline
 70
8
 71
3
 72
8
 73
4
 74
0
 40
0
 40
0
 40
0
 40
0
 40
1
 40
1
 40
1
 40
1
 10
7.549996
 20
3.146045
 30
0.0
 10
7.497429
 20
3.146045
 30
0.0
 10
7.453533
 20
3.102696
 30
0.0
 10
7.453533
 20
3.050118
 30
0.0
  0
SPLINE
  5
10e
100
AcDbEntity
  8
Layer_1
 62
7
100
AcDbSpline
 70
8
 71
3
 72
8
 73
4
 74
0
 40
0
 40
0
 40
0
 40
0
 40
1
 40
1
 40
1
 40
1
 10
7.453533
 20
3.050118
 30
0.0
 10
7.453533
 20
2.997568
 30
0.0
 10
7.497429
 20
2.953654
 30
0.0
 10
7.549996
 20
2.953654
 30
0.0
  0
SPLINE
  5
10f
100
AcDbEntity
  8
Layer_1
 62
7
100
AcDbSpline
 70
8
 71
3
 72
8
 73
4
 74
0
 40
0
 40
0
 40
0
 40
0
 40
1
 40
1
 40
1
 40
1
 10
7.549996
 20
2.953654
 30
0.0
 10
7.602563
 20
2.953654
 30
0.0
 10
7.646458
 20
2.997568
 30
0.0
 10
7.646458
 20
3.050118
 30
0.0
  0
SPLINE
  5
110
100
AcDbEntity
  8
Layer_1
 62
7
100
AcDbSpline
 70
8
 71
3
 72
8
 73
4
 74
0
 40
0
 40
0
 40
0
 40
0
 40
1
 40
1
 40
1
 40
1
 10
7.646458
 20
3.050118
 30
0.0
 10
7.646458
 20
3.102696
 30
0.0
 10
7.602563
 20
3.146045
 30
0.0
 10
7.549996
 20
3.146045
 30
0.0
  0
LINE
  5
111
100
AcDbEntity
  8
Layer_1
 62
7
100
AcDbLine
 10
7.549996
 20
3.146045
 30
0.0
 11
7.549996
 21
3.146045
 31
0.0
  0
SPLINE
  5
112
100
AcDbEntity
  8
Layer_1
 62
7
100
AcDbSpline
 70
8
 71
3
 72
8
 73
4
 74
0
 40
0
 40
0
 40
0
 40
0
 40
1
 40
1
 40
1
 40
1
 10
7.549996
 20
3.053984
 30
0.0
 10
7.551463
 20
3.053984
 30
0.0
 10
7.553854
 20
3.051162
 30
0.0
 10
7.553854
 20
3.050033
 30
0.0
  0
SPLINE
  5
113
100
AcDbEntity
  8
Layer_1
 62
7
100
AcDbSpline
 70
8
 71
3
 72
8
 73
4
 74
0
 40
0
 40
0
 40
0
 40
0
 40
1
 40
1
 40
1
 40
1
 10
7.553854
 20
3.050033
 30
0.0
 10
7.553854
 20
3.047211
 30
0.0
 10
7.551483
 20
3.046082
 30
0.0
 10
7.549996
 20
3.046082
 30
0.0
  0
SPLINE
  5
114
100
AcDbEntity
  8
Layer_1
 62
7
100
AcDbSpline
 70
8
 71
3
 72
8
 73
4
 74
0
 40
0
 40
0
 40
0
 40
0
 40
1
 40
1
 40
1
 40
1
 10
7.549996
 20
3.046082
 30
0.0
 10
7.548528
 20
3.046082
 30
0.0
 10
7.546138
 20
3.048904
 30
0.0
 10
7.546138
 20
3.050033
 30
0.0
  0
SPLINE
  5
115
100
AcDbEntity
  8
Layer_1
 62
7
100
AcDbSpline
 70
8
 71
3
 72
8
 73
4
 74
0
 40
0
 40
0
 40
0
 40
0
 40
1
 40
1
 40
1
 40
1
 10
7.546138
 20
3.050033
 30
0.0
 10
7.546138
 20
3.052856
 30
0.0
 10
7.548508
 20
3.053984
 30
0.0
 10
7.549996
 20
3.053984
 30
0.0
  0
LINE
  5
116
100
AcDbEntity
  8
Layer_1
 62
7
100
AcDbLine
 10
7.549996
 20
3.053984
 30
0.0
 11
7.549996
 21
3.053984
 31
0.0
  0
SPLINE
  5
117
100
AcDbEntity
  8
Layer_1
 62
7
100
AcDbSpline
 70
8
 71
3
 72
8
 73
4
 74
0
 40
0
 40
0
 40
0
 40
0
 40
1
 40
1
 40
1
 40
1
 10
104.050152
 20
125.646464
 30
0.0
 10
103.997585
 20
125.646464
 30
0.0
 10
103.953688
 20
125.602567
 30
0.0
 10
103.953688
 20
125.550000
 30
0.0
  0
SPLINE
  5
118
100
AcDbEntity
  8
Layer_1
 62
7
100
AcDbSpline
 70
8
 71
3
 72
8
 73
4
 74
0
 40
0
 40
0
 40
0
 40
0
 40
1
 40
1
 40
1
 40
1
 10
103.953688
 20
125.550000
 30
0.0
 10
103.953688
 20
125.497433
 30
0.0
 10
103.997585
 20
125.453536
 30
0.0
 10
104.050152
 20
125.453536
 30
0.0
  0
SPLINE
  5
119
100
AcDbEntity
  8
Layer_1
 62
7
100
AcDbSpline
 70
8
 71
3
 72
8
 73
4
 74
0
 40
0
 40
0
 40
0
 40
0
 40
1
 40
1
 40
1
 40
1
 10
104.050152
 20
125.453536
 30
0.0
 10
104.102718
 20
125.453536
 30
0.0
 10
104.146062
 20
125.497433
 30
0.0
 10
104.146062
 20
125.550000
 30
0.0
  0
SPLINE
  5
11a
100
AcDbEntity
  8
Layer_1
 62
7
100
AcDbSpline
 70
8
 71
3
 72
8
 73
4
 74
0
 40
0
 40
0
 40
0
 40
0
 40
1
 40
1
 40
1
 40
1
 10
104.146062
 20
125.550000
 30
0.0
 10
104.146062
 20
125.602567
 30
0.0
 10
104.102718
 20
125.646464
 30
0.0
 10
104.050152
 20
125.646464
 30
0.0
  0
LINE
  5
11b
100
AcDbEntity
  8
Layer_1
 62
7
100
AcDbLine
 10
104.050152
 20
125.646464
 30
0.0
 11
104.050152
 21
125.646464
 31
0.0
  0
SPLINE
  5
11c
100
AcDbEntity
  8
Layer_1
 62
7
100
AcDbSpline
 70
8
 71
3
 72
8
 73
4
 74
0
 40
0
 40
0
 40
0
 40
0
 40
1
 40
1
 40
1
 40
1
 10
104.050152
 20
125.553858
 30
0.0
 10
104.051563
 20
125.553858
 30
0.0
 10
104.054018
 20
125.551600
 30
0.0
 10
104.054018
 20
125.549992
 30
0.0
  0
SPLINE
  5
11d
100
AcDbEntity
  8
Layer_1
 62
7
100
AcDbSpline
 70
8
 71
3
 72
8
 73
4
 74
0
 40
0
 40
0
 40
0
 40
0
 40
1
 40
1
 40
1
 40
1
 10
104.054018
 20
125.549992
 30
0.0
 10
104.054018
 20
125.548580
 30
0.0
 10
104.051760
 20
125.546125
 30
0.0
 10
104.050152
 20
125.546125
 30
0.0
  0
SPLINE
  5
11e
100
AcDbEntity
  8
Layer_1
 62
7
100
AcDbSpline
 70
8
 71
3
 72
8
 73
4
 74
0
 40
0
 40
0
 40
0
 40
0
 40
1
 40
1
 40
1
 40
1
 10
104.050152
 20
125.546125
 30
0.0
 10
104.048741
 20
125.546125
 30
0.0
 10
104.046285
 20
125.548383
 30
0.0
 10
104.046285
 20
125.549992
 30
0.0
  0
SPLINE
  5
11f
100
AcDbEntity
  8
Layer_1
 62
7
100
AcDbSpline
 70
8
 71
3
 72
8
 73
4
 74
0
 40
0
 40
0
 40
0
 40
0
 40
1
 40
1
 40
1
 40
1
 10
104.046285
 20
125.549992
 30
0.0
 10
104.046285
 20
125.551403
 30
0.0
 10
104.048543
 20
125.553858
 30
0.0
 10
104.050152
 20
125.553858
 30
0.0
  0
LINE
  5
120
100
AcDbEntity
  8
Layer_1
 62
7
100
AcDbLine
 10
104.050152
 20
125.553858
 30
0.0
 11
104.050152
 21
125.553858
 31
0.0
  0
SPLINE
  5
121
100
AcDbEntity
  8
Layer_1
 62
7
100
AcDbSpline
 70
8
 71
3
 72
8
 73
4
 74
0
 40
0
 40
0
 40
0
 40
0
 40
1
 40
1
 40
1
 40
1
 10
104.050152
 20
3.146045
 30
0.0
 10
104.102718
 20
3.146045
 30
0.0
 10
104.146062
 20
3.102696
 30
0.0
 10
104.146062
 20
3.050118
 30
0.0
  0
SPLINE
  5
122
100
AcDbEntity
  8
Layer_1
 62
7
100
AcDbSpline
 70
8
 71
3
 72
8
 73
4
 74
0
 40
0
 40
0
 40
0
 40
0
 40
1
 40
1
 40
1
 40
1
 10
104.146062
 20
3.050118
 30
0.0
 10
104.146062
 20
2.997568
 30
0.0
 10
104.102718
 20
2.953654
 30
0.0
 10
104.050152
 20
2.953654
 30
0.0
  0
SPLINE
  5
123
100
AcDbEntity
  8
Layer_1
 62
7
100
AcDbSpline
 70
8
 71
3
 72
8
 73
4
 74
0
 40
0
 40
0
 40
0
 40
0
 40
1
 40
1
 40
1
 40
1
 10
104.050152
 20
2.953654
 30
0.0
 10
103.997585
 20
2.953654
 30
0.0
 10
103.953688
 20
2.997568
 30
0.0
 10
103.953688
 20
3.050118
 30
0.0
  0
SPLINE
  5
124
100
AcDbEntity
  8
Layer_1
 62
7
100
AcDbSpline
 70
8
 71
3
 72
8
 73
4
 74
0
 40
0
 40
0
 40
0
 40
0
 40
1
 40
1
 40
1
 40
1
 10
103.953688
 20
3.050118
 30
0.0
 10
103.953688
 20
3.102696
 30
0.0
 10
103.997585
 20
3.146045
 30
0.0
 10
104.050152
 20
3.146045
 30
0.0
  0
LINE
  5
125
100
AcDbEntity
  8
Layer_1
 62
7
100
AcDbLine
 10
104.050152
 20
3.146045
 30
0.0
 11
104.050152
 21
3.146045
 31
0.0
  0
SPLINE
  5
126
100
AcDbEntity
  8
Layer_1
 62
7
100
AcDbSpline
 70
8
 71
3
 72
8
 73
4
 74
0
 40
0
 40
0
 40
0
 40
0
 40
1
 40
1
 40
1
 40
1
 10
104.050152
 20
3.053984
 30
0.0
 10
104.048741
 20
3.053984
 30
0.0
 10
104.046285
 20
3.051162
 30
0.0
 10
104.046285
 20
3.050033
 30
0.0
  0
SPLINE
  5
127
100
AcDbEntity
  8
Layer_1
 62
7
100
AcDbSpline
 70
8
 71
3
 72
8
 73
4
 74
0
 40
0
 40
0
 40
0
 40
0
 40
1
 40
1
 40
1
 40
1
 10
104.046285
 20
3.050033
 30
0.0
 10
104.046285
 20
3.047211
 30
0.0
 10
104.048543
 20
3.046082
 30
0.0
 10
104.050152
 20
3.046082
 30
0.0
  0
SPLINE
  5
128
100
AcDbEntity
  8
Layer_1
 62
7
100
AcDbSpline
 70
8
 71
3
 72
8
 73
4
 74
0
 40
0
 40
0
 40
0
 40
0
 40
1
 40
1
 40
1
 40
1
 10
104.050152
 20
3.046082
 30
0.0
 10
104.051563
 20
3.046082
 30
0.0
 10
104.054018
 20
3.048904
 30
0.0
 10
104.054018
 20
3.050033
 30
0.0
  0
SPLINE
  5
129
100
AcDbEntity
  8
Layer_1
 62
7
100
AcDbSpline
 70
8
 71
3
 72
8
 73
4
 74
0
 40
0
 40
0
 40
0
 40
0
 40
1
 40
1
 40
1
 40
1
 10
104.054018
 20
3.050033
 30
0.0
 10
104.054018
 20
3.052856
 30
0.0
 10
104.051760
 20
3.053984
 30
0.0
 10
104.050152
 20
3.053984
 30
0.0
  0
LINE
  5
12a
100
AcDbEntity
  8
Layer_1
 62
7
100
AcDbLine
 10
104.050152
 20
3.053984
 30
0.0
 11
104.050152
 21
3.053984
 31
0.0
  0
SPLINE
  5
12b
100
AcDbEntity
  8
Layer_1
 62
7
100
AcDbSpline
 70
8
 71
3
 72
8
 73
4
 74
0
 40
0
 40
0
 40
0
 40
0
 40
1
 40
1
 40
1
 40
1
 10
7.549996
 20
125.646464
 30
0.0
 10
7.602563
 20
125.646464
 30
0.0
 10
7.646458
 20
125.602567
 30
0.0
 10
7.646458
 20
125.550000
 30
0.0
  0
SPLINE
  5
12c
100
AcDbEntity
  8
Layer_1
 62
7
100
AcDbSpline
 70
8
 71
3
 72
8
 73
4
 74
0
 40
0
 40
0
 40
0
 40
0
 40
1
 40
1
 40
1
 40
1
 10
7.646458
 20
125.550000
 30
0.0
 10
7.646458
 20
125.497433
 30
0.0
 10
7.602563
 20
125.453536
 30
0.0
 10
7.549996
 20
125.453536
 30
0.0
  0
SPLINE
  5
12d
100
AcDbEntity
  8
Layer_1
 62
7
100
AcDbSpline
 70
8
 71
3
 72
8
 73
4
 74
0
 40
0
 40
0
 40
0
 40
0
 40
1
 40
1
 40
1
 40
1
 10
7.549996
 20
125.453536
 30
0.0
 10
7.497429
 20
125.453536
 30
0.0
 10
7.453533
 20
125.497433
 30
0.0
 10
7.453533
 20
125.550000
 30
0.0
  0
SPLINE
  5
12e
100
AcDbEntity
  8
Layer_1
 62
7
100
AcDbSpline
 70
8
 71
3
 72
8
 73
4
 74
0
 40
0
 40
0
 40
0
 40
0
 40
1
 40
1
 40
1
 40
1
 10
7.453533
 20
125.550000
 30
0.0
 10
7.453533
 20
125.602567
 30
0.0
 10
7.497429
 20
125.646464
 30
0.0
 10
7.549996
 20
125.646464
 30
0.0
  0
LINE
  5
12f
100
AcDbEntity
  8
Layer_1
 62
7
100
AcDbLine
 10
7.549996
 20
125.646464
 30
0.0
 11
7.549996
 21
125.646464
 31
0.0
  0
SPLINE
  5
130
100
AcDbEntity
  8
Layer_1
 62
7
100
AcDbSpline
 70
8
 71
3
 72
8
 73
4
 74
0
 40
0
 40
0
 40
0
 40
0
 40
1
 40
1
 40
1
 40
1
 10
7.549996
 20
125.553858
 30
0.0
 10
7.548528
 20
125.553858
 30
0.0
 10
7.546138
 20
125.551600
 30
0.0
 10
7.546138
 20
125.549992
 30
0.0
  0
SPLINE
  5
131
100
AcDbEntity
  8
Layer_1
 62
7
100
AcDbSpline
 70
8
 71
3
 72
8
 73
4
 74
0
 40
0
 40
0
 40
0
 40
0
 40
1
 40
1
 40
1
 40
1
 10
7.546138
 20
125.549992
 30
0.0
 10
7.546138
 20
125.548580
 30
0.0
 10
7.548508
 20
125.546125
 30
0.0
 10
7.549996
 20
125.546125
 30
0.0
  0
SPLINE
  5
132
100
AcDbEntity
  8
Layer_1
 62
7
100
AcDbSpline
 70
8
 71
3
 72
8
 73
4
 74
0
 40
0
 40
0
 40
0
 40
0
 40
1
 40
1
 40
1
 40
1
 10
7.549996
 20
125.546125
 30
0.0
 10
7.551463
 20
125.546125
 30
0.0
 10
7.553854
 20
125.548383
 30
0.0
 10
7.553854
 20
125.549992
 30
0.0
  0
SPLINE
  5
133
100
AcDbEntity
  8
Layer_1
 62
7
100
AcDbSpline
 70
8
 71
3
 72
8
 73
4
 74
0
 40
0
 40
0
 40
0
 40
0
 40
1
 40
1
 40
1
 40
1
 10
7.553854
 20
125.549992
 30
0.0
 10
7.553854
 20
125.551403
 30
0.0
 10
7.551483
 20
125.553858
 30
0.0
 10
7.549996
 20
125.553858
 30
0.0
  0
LINE
  5
134
100
AcDbEntity
  8
Layer_1
 62
7
100
AcDbLine
 10
7.549996
 20
125.553858
 30
0.0
 11
7.549996
 21
125.553858
 31
0.0
  0
SPLINE
  5
135
100
AcDbEntity
  8
Layer_1
 62
7
100
AcDbSpline
 70
8
 71
3
 72
8
 73
4
 74
0
 40
0
 40
0
 40
0
 40
0
 40
1
 40
1
 40
1
 40
1
 10
22.462517
 20
82.595038
 30
0.0
 10
23.111110
 20
81.946445
 30
0.0
 10
23.475485
 20
81.066764
 30
0.0
 10
23.475485
 20
80.149514
 30
0.0
  0
SPLINE
  5
136
100
AcDbEntity
  8
Layer_1
 62
7
100
AcDbSpline
 70
8
 71
3
 72
8
 73
4
 74
0
 40
0
 40
0
 40
0
 40
0
 40
1
 40
1
 40
1
 40
1
 10
23.475485
 20
80.149514
 30
0.0
 10
23.475485
 20
79.232265
 30
0.0
 10
23.111110
 20
78.352584
 30
0.0
 10
22.462516
 20
77.703991
 30
0.0
  0
SPLINE
  5
137
100
AcDbEntity
  8
Layer_1
 62
7
100
AcDbSpline
 70
8
 71
3
 72
8
 73
4
 74
0
 40
0
 40
0
 40
0
 40
0
 40
1
 40
1
 40
1
 40
1
 10
22.462516
 20
77.703991
 30
0.0
 10
21.813923
 20
77.055398
 30
0.0
 10
20.934242
 20
76.691022
 30
0.0
 10
20.016993
 20
76.691022
 30
0.0
  0
SPLINE
  5
138
100
AcDbEntity
  8
Layer_1
 62
7
100
AcDbSpline
 70
8
 71
3
 72
8
 73
4
 74
0
 40
0
 40
0
 40
0
 40
0
 40
1
 40
1
 40
1
 40
1
 10
20.016993
 20
76.691022
 30
0.0
 10
19.099744
 20
76.691022
 30
0.0
 10
18.220063
 20
77.055398
 30
0.0
 10
17.571470
 20
77.703991
 30
0.0
  0
SPLINE
  5
139
100
AcDbEntity
  8
Layer_1
 62
7
100
AcDbSpline
 70
8
 71
3
 72
8
 73
4
 74
0
 40
0
 40
0
 40
0
 40
0
 40
1
 40
1
 40
1
 40
1
 10
17.571470
 20
77.703991
 30
0.0
 10
16.922877
 20
78.352584
 30
0.0
 10
16.558501
 20
79.232265
 30
0.0
 10
16.558501
 20
80.149514
 30
0.0
  0
SPLINE
  5
13a
100
AcDbEntity
  8
Layer_1
 62
7
100
AcDbSpline
 70
8
 71
3
 72
8
 73
4
 74
0
 40
0
 40
0
 40
0
 40
0
 40
1
 40
1
 40
1
 40
1
 10
16.558501
 20
80.149514
 30
0.0
 10
16.558501
 20
81.066764
 30
0.0
 10
16.922877
 20
81.946445
 30
0.0
 10
17.571470
 20
82.595038
 30
0.0
  0
SPLINE
  5
13b
100
AcDbEntity
  8
Layer_1
 62
7
100
AcDbSpline
 70
8
 71
3
 72
8
 73
4
 74
0
 40
0
 40
0
 40
0
 40
0
 40
1
 40
1
 40
1
 40
1
 10
17.571470
 20
82.595038
 30
0.0
 10
18.220063
 20
83.243631
 30
0.0
 10
19.099744
 20
83.608007
 30
0.0
 10
20.016993
 20
83.608007
 30
0.0
  0
SPLINE
  5
13c
100
AcDbEntity
  8
Layer_1
 62
7
100
AcDbSpline
 70
8
 71
3
 72
8
 73
4
 74
0
 40
0
 40
0
 40
0
 40
0
 40
1
 40
1
 40
1
 40
1
 10
20.016993
 20
83.608007
 30
0.0
 10
20.934242
 20
83.608007
 30
0.0
 10
21.813924
 20
83.243631
 30
0.0
 10
22.462517
 20
82.595038
 30
0.0
  0
LINE
  5
13d
100
AcDbEntity
  8
Layer_1
 62
7
100
AcDbLine
 10
22.462517
 20
82.595038
 30
0.0
 11
22.462517
 21
82.595038
 31
0.0
  0
LINE
  5
13e
100
AcDbEntity
  8
Layer_1
 62
7
100
AcDbLine
 10
16.239583
 20
83.926924
 30
0.0
 11
23.794404
 21
76.372103
 31
0.0
  0
LINE
  5
13f
100
AcDbEntity
  8
Layer_1
 62
7
100
AcDbLine
 10
23.794404
 20
83.926924
 30
0.0
 11
16.239583
 21
76.372103
 31
0.0
  0
SPLINE
  5
140
100
AcDbEntity
  8
Layer_1
 62
7
100
AcDbSpline
 70
8
 71
3
 72
8
 73
4
 74
0
 40
0
 40
0
 40
0
 40
0
 40
1
 40
1
 40
1
 40
1
 10
22.439445
 20
53.991641
 30
0.0
 10
23.088038
 20
53.343047
 30
0.0
 10
23.452414
 20
52.463366
 30
0.0
 10
23.452414
 20
51.546117
 30
0.0
  0
SPLINE
  5
141
100
AcDbEntity
  8
Layer_1
 62
7
100
AcDbSpline
 70
8
 71
3
 72
8
 73
4
 74
0
 40
0
 40
0
 40
0
 40
0
 40
1
 40
1
 40
1
 40
1
 10
23.452414
 20
51.546117
 30
0.0
 10
23.452414
 20
50.628868
 30
0.0
 10
23.088038
 20
49.749187
 30
0.0
 10
22.439445
 20
49.100594
 30
0.0
  0
SPLINE
  5
142
100
AcDbEntity
  8
Layer_1
 62
7
100
AcDbSpline
 70
8
 71
3
 72
8
 73
4
 74
0
 40
0
 40
0
 40
0
 40
0
 40
1
 40
1
 40
1
 40
1
 10
22.439445
 20
49.100594
 30
0.0
 10
21.790852
 20
48.452001
 30
0.0
 10
20.911171
 20
48.087625
 30
0.0
 10
19.993922
 20
48.087625
 30
0.0
  0
SPLINE
  5
143
100
AcDbEntity
  8
Layer_1
 62
7
100
AcDbSpline
 70
8
 71
3
 72
8
 73
4
 74
0
 40
0
 40
0
 40
0
 40
0
 40
1
 40
1
 40
1
 40
1
 10
19.993922
 20
48.087625
 30
0.0
 10
19.076672
 20
48.087625
 30
0.0
 10
18.196991
 20
48.452001
 30
0.0
 10
17.548398
 20
49.100594
 30
0.0
  0
SPLINE
  5
144
100
AcDbEntity
  8
Layer_1
 62
7
100
AcDbSpline
 70
8
 71
3
 72
8
 73
4
 74
0
 40
0
 40
0
 40
0
 40
0
 40
1
 40
1
 40
1
 40
1
 10
17.548398
 20
49.100594
 30
0.0
 10
16.899805
 20
49.749187
 30
0.0
 10
16.535429
 20
50.628868
 30
0.0
 10
16.535429
 20
51.546117
 30
0.0
  0
SPLINE
  5
145
100
AcDbEntity
  8
Layer_1
 62
7
100
AcDbSpline
 70
8
 71
3
 72
8
 73
4
 74
0
 40
0
 40
0
 40
0
 40
0
 40
1
 40
1
 40
1
 40
1
 10
16.535429
 20
51.546117
 30
0.0
 10
16.535429
 20
52.463366
 30
0.0
 10
16.899805
 20
53.343047
 30
0.0
 10
17.548398
 20
53.991641
 30
0.0
  0
SPLINE
  5
146
100
AcDbEntity
  8
Layer_1
 62
7
100
AcDbSpline
 70
8
 71
3
 72
8
 73
4
 74
0
 40
0
 40
0
 40
0
 40
0
 40
1
 40
1
 40
1
 40
1
 10
17.548398
 20
53.991641
 30
0.0
 10
18.196991
 20
54.640234
 30
0.0
 10
19.076672
 20
55.004610
 30
0.0
 10
19.993922
 20
55.004610
 30
0.0
  0
SPLINE
  5
147
100
AcDbEntity
  8
Layer_1
 62
7
100
AcDbSpline
 70
8
 71
3
 72
8
 73
4
 74
0
 40
0
 40
0
 40
0
 40
0
 40
1
 40
1
 40
1
 40
1
 10
19.993922
 20
55.004610
 30
0.0
 10
20.911171
 20
55.004610
 30
0.0
 10
21.790852
 20
54.640234
 30
0.0
 10
22.439445
 20
53.991641
 30
0.0
  0
LINE
  5
148
100
AcDbEntity
  8
Layer_1
 62
7
100
AcDbLine
 10
22.439445
 20
53.991641
 30
0.0
 11
22.439445
 21
53.991641
 31
0.0
  0
LINE
  5
149
100
AcDbEntity
  8
Layer_1
 62
7
100
AcDbLine
 10
16.216511
 20
55.323527
 30
0.0
 11
23.771332
 21
47.768706
 31
0.0
  0
LINE
  5
14a
100
AcDbEntity
  8
Layer_1
 62
7
100
AcDbLine
 10
23.771332
 20
55.323527
 30
0.0
 11
16.216511
 21
47.768706
 31
0.0
  0
SPLINE
  5
14b
100
AcDbEntity
  8
Layer_1
 62
7
100
AcDbSpline
 70
8
 71
3
 72
8
 73
4
 74
0
 40
0
 40
0
 40
0
 40
0
 40
1
 40
1
 40
1
 40
1
 10
21.012904
 20
31.039905
 30
0.0
 10
21.012904
 20
29.367604
 30
0.0
 10
19.657237
 20
28.011935
 30
0.0
 10
17.984936
 20
28.011934
 30
0.0
  0
SPLINE
  5
14c
100
AcDbEntity
  8
Layer_1
 62
7
100
AcDbSpline
 70
8
 71
3
 72
8
 73
4
 74
0
 40
0
 40
0
 40
0
 40
0
 40
1
 40
1
 40
1
 40
1
 10
17.984936
 20
28.011934
 30
0.0
 10
17.181868
 20
28.011934
 30
0.0
 10
16.411691
 20
28.330951
 30
0.0
 10
15.843837
 20
28.898806
 30
0.0
  0
SPLINE
  5
14d
100
AcDbEntity
  8
Layer_1
 62
7
100
AcDbSpline
 70
8
 71
3
 72
8
 73
4
 74
0
 40
0
 40
0
 40
0
 40
0
 40
1
 40
1
 40
1
 40
1
 10
15.843837
 20
28.898806
 30
0.0
 10
15.275982
 20
29.466661
 30
0.0
 10
14.956965
 20
30.236837
 30
0.0
 10
14.956965
 20
31.039905
 30
0.0
  0
SPLINE
  5
14e
100
AcDbEntity
  8
Layer_1
 62
7
100
AcDbSpline
 70
8
 71
3
 72
8
 73
4
 74
0
 40
0
 40
0
 40
0
 40
0
 40
1
 40
1
 40
1
 40
1
 10
14.956965
 20
31.039905
 30
0.0
 10
14.956965
 20
31.842972
 30
0.0
 10
15.275983
 20
32.613148
 30
0.0
 10
15.843838
 20
33.181002
 30
0.0
  0
SPLINE
  5
14f
100
AcDbEntity
  8
Layer_1
 62
7
100
AcDbSpline
 70
8
 71
3
 72
8
 73
4
 74
0
 40
0
 40
0
 40
0
 40
0
 40
1
 40
1
 40
1
 40
1
 10
15.843838
 20
33.181002
 30
0.0
 10
16.411692
 20
33.748856
 30
0.0
 10
17.181868
 20
34.067873
 30
0.0
 10
17.984936
 20
34.067873
 30
0.0
  0
SPLINE
  5
150
100
AcDbEntity
  8
Layer_1
 62
7
100
AcDbSpline
 70
8
 71
3
 72
8
 73
4
 74
0
 40
0
 40
0
 40
0
 40
0
 40
1
 40
1
 40
1
 40
1
 10
17.984936
 20
34.067873
 30
0.0
 10
19.657236
 20
34.067872
 30
0.0
 10
21.012903
 20
32.712205
 30
0.0
 10
21.012904
 20
31.039905
 30
0.0
  0
LINE
  5
151
100
AcDbEntity
  8
Layer_1
 62
7
100
AcDbLine
 10
21.012904
 20
31.039905
 30
0.0
 11
21.012904
 21
31.039905
 31
0.0
  0
LINE
  5
152
100
AcDbEntity
  8
Layer_1
 62
7
100
AcDbLine
 10
17.984936
 20
33.509349
 30
0.0
 11
17.984936
 21
28.570460
 31
0.0
  0
LINE
  5
153
100
AcDbEntity
  8
Layer_1
 62
7
100
AcDbLine
 10
20.454380
 20
31.039905
 30
0.0
 11
15.515491
 21
31.039905
 31
0.0
  0
SPLINE
  5
154
100
AcDbEntity
  8
Layer_1
 62
7
100
AcDbSpline
 70
8
 71
3
 72
8
 73
4
 74
0
 40
0
 40
0
 40
0
 40
0
 40
1
 40
1
 40
1
 40
1
 10
47.462520
 20
82.595038
 30
0.0
 10
48.111113
 20
81.946445
 30
0.0
 10
48.475489
 20
81.066764
 30
0.0
 10
48.475489
 20
80.149514
 30
0.0
  0
SPLINE
  5
155
100
AcDbEntity
  8
Layer_1
 62
7
100
AcDbSpline
 70
8
 71
3
 72
8
 73
4
 74
0
 40
0
 40
0
 40
0
 40
0
 40
1
 40
1
 40
1
 40
1
 10
48.475489
 20
80.149514
 30
0.0
 10
48.475489
 20
79.232265
 30
0.0
 10
48.111113
 20
78.352584
 30
0.0
 10
47.462520
 20
77.703991
 30
0.0
  0
SPLINE
  5
156
100
AcDbEntity
  8
Layer_1
 62
7
100
AcDbSpline
 70
8
 71
3
 72
8
 73
4
 74
0
 40
0
 40
0
 40
0
 40
0
 40
1
 40
1
 40
1
 40
1
 10
47.462520
 20
77.703991
 30
0.0
 10
46.813927
 20
77.055398
 30
0.0
 10
45.934246
 20
76.691022
 30
0.0
 10
45.016997
 20
76.691022
 30
0.0
  0
SPLINE
  5
157
100
AcDbEntity
  8
Layer_1
 62
7
100
AcDbSpline
 70
8
 71
3
 72
8
 73
4
 74
0
 40
0
 40
0
 40
0
 40
0
 40
1
 40
1
 40
1
 40
1
 10
45.016997
 20
76.691022
 30
0.0
 10
44.099748
 20
76.691022
 30
0.0
 10
43.220067
 20
77.055398
 30
0.0
 10
42.571474
 20
77.703991
 30
0.0
  0
SPLINE
  5
158
100
AcDbEntity
  8
Layer_1
 62
7
100
AcDbSpline
 70
8
 71
3
 72
8
 73
4
 74
0
 40
0
 40
0
 40
0
 40
0
 40
1
 40
1
 40
1
 40
1
 10
42.571474
 20
77.703991
 30
0.0
 10
41.922880
 20
78.352584
 30
0.0
 10
41.558505
 20
79.232265
 30
0.0
 10
41.558505
 20
80.149514
 30
0.0
  0
SPLINE
  5
159
100
AcDbEntity
  8
Layer_1
 62
7
100
AcDbSpline
 70
8
 71
3
 72
8
 73
4
 74
0
 40
0
 40
0
 40
0
 40
0
 40
1
 40
1
 40
1
 40
1
 10
41.558505
 20
80.149514
 30
0.0
 10
41.558505
 20
81.066764
 30
0.0
 10
41.922880
 20
81.946445
 30
0.0
 10
42.571474
 20
82.595038
 30
0.0
  0
SPLINE
  5
15a
100
AcDbEntity
  8
Layer_1
 62
7
100
AcDbSpline
 70
8
 71
3
 72
8
 73
4
 74
0
 40
0
 40
0
 40
0
 40
0
 40
1
 40
1
 40
1
 40
1
 10
42.571474
 20
82.595038
 30
0.0
 10
43.220067
 20
83.243631
 30
0.0
 10
44.099748
 20
83.608007
 30
0.0
 10
45.016997
 20
83.608007
 30
0.0
  0
SPLINE
  5
15b
100
AcDbEntity
  8
Layer_1
 62
7
100
AcDbSpline
 70
8
 71
3
 72
8
 73
4
 74
0
 40
0
 40
0
 40
0
 40
0
 40
1
 40
1
 40
1
 40
1
 10
45.016997
 20
83.608007
 30
0.0
 10
45.934246
 20
83.608007
 30
0.0
 10
46.813927
 20
83.243631
 30
0.0
 10
47.462520
 20
82.595038
 30
0.0
  0
LINE
  5
15c
100
AcDbEntity
  8
Layer_1
 62
7
100
AcDbLine
 10
47.462520
 20
82.595038
 30
0.0
 11
47.462520
 21
82.595038
 31
0.0
  0
LINE
  5
15d
100
AcDbEntity
  8
Layer_1
 62
7
100
AcDbLine
 10
41.239587
 20
83.926924
 30
0.0
 11
48.794408
 21
76.372103
 31
0.0
  0
LINE
  5
15e
100
AcDbEntity
  8
Layer_1
 62
7
100
AcDbLine
 10
48.794408
 20
83.926924
 30
0.0
 11
41.239587
 21
76.372103
 31
0.0
  0
SPLINE
  5
15f
100
AcDbEntity
  8
Layer_1
 62
7
100
AcDbSpline
 70
8
 71
3
 72
8
 73
4
 74
0
 40
0
 40
0
 40
0
 40
0
 40
1
 40
1
 40
1
 40
1
 10
47.439449
 20
53.991641
 30
0.0
 10
48.088042
 20
53.343047
 30
0.0
 10
48.452417
 20
52.463366
 30
0.0
 10
48.452417
 20
51.546117
 30
0.0
  0
SPLINE
  5
160
100
AcDbEntity
  8
Layer_1
 62
7
100
AcDbSpline
 70
8
 71
3
 72
8
 73
4
 74
0
 40
0
 40
0
 40
0
 40
0
 40
1
 40
1
 40
1
 40
1
 10
48.452417
 20
51.546117
 30
0.0
 10
48.452417
 20
50.628868
 30
0.0
 10
48.088042
 20
49.749187
 30
0.0
 10
47.439448
 20
49.100594
 30
0.0
  0
SPLINE
  5
161
100
AcDbEntity
  8
Layer_1
 62
7
100
AcDbSpline
 70
8
 71
3
 72
8
 73
4
 74
0
 40
0
 40
0
 40
0
 40
0
 40
1
 40
1
 40
1
 40
1
 10
47.439448
 20
49.100594
 30
0.0
 10
46.790855
 20
48.452001
 30
0.0
 10
45.911174
 20
48.087625
 30
0.0
 10
44.993925
 20
48.087625
 30
0.0
  0
SPLINE
  5
162
100
AcDbEntity
  8
Layer_1
 62
7
100
AcDbSpline
 70
8
 71
3
 72
8
 73
4
 74
0
 40
0
 40
0
 40
0
 40
0
 40
1
 40
1
 40
1
 40
1
 10
44.993925
 20
48.087625
 30
0.0
 10
44.076676
 20
48.087625
 30
0.0
 10
43.196995
 20
48.452001
 30
0.0
 10
42.548402
 20
49.100594
 30
0.0
  0
SPLINE
  5
163
100
AcDbEntity
  8
Layer_1
 62
7
100
AcDbSpline
 70
8
 71
3
 72
8
 73
4
 74
0
 40
0
 40
0
 40
0
 40
0
 40
1
 40
1
 40
1
 40
1
 10
42.548402
 20
49.100594
 30
0.0
 10
41.899809
 20
49.749187
 30
0.0
 10
41.535433
 20
50.628868
 30
0.0
 10
41.535433
 20
51.546117
 30
0.0
  0
SPLINE
  5
164
100
AcDbEntity
  8
Layer_1
 62
7
100
AcDbSpline
 70
8
 71
3
 72
8
 73
4
 74
0
 40
0
 40
0
 40
0
 40
0
 40
1
 40
1
 40
1
 40
1
 10
41.535433
 20
51.546117
 30
0.0
 10
41.535433
 20
52.463366
 30
0.0
 10
41.899809
 20
53.343047
 30
0.0
 10
42.548402
 20
53.991641
 30
0.0
  0
SPLINE
  5
165
100
AcDbEntity
  8
Layer_1
 62
7
100
AcDbSpline
 70
8
 71
3
 72
8
 73
4
 74
0
 40
0
 40
0
 40
0
 40
0
 40
1
 40
1
 40
1
 40
1
 10
42.548402
 20
53.991641
 30
0.0
 10
43.196995
 20
54.640234
 30
0.0
 10
44.076676
 20
55.004610
 30
0.0
 10
44.993925
 20
55.004610
 30
0.0
  0
SPLINE
  5
166
100
AcDbEntity
  8
Layer_1
 62
7
100
AcDbSpline
 70
8
 71
3
 72
8
 73
4
 74
0
 40
0
 40
0
 40
0
 40
0
 40
1
 40
1
 40
1
 40
1
 10
44.993925
 20
55.004610
 30
0.0
 10
45.911174
 20
55.004610
 30
0.0
 10
46.790855
 20
54.640234
 30
0.0
 10
47.439449
 20
53.991641
 30
0.0
  0
LINE
  5
167
100
AcDbEntity
  8
Layer_1
 62
7
100
AcDbLine
 10
47.439449
 20
53.991641
 30
0.0
 11
47.439449
 21
53.991641
 31
0.0
  0
LINE
  5
168
100
AcDbEntity
  8
Layer_1
 62
7
100
AcDbLine
 10
41.216515
 20
55.323527
 30
0.0
 11
48.771336
 21
47.768706
 31
0.0
  0
LINE
  5
169
100
AcDbEntity
  8
Layer_1
 62
7
100
AcDbLine
 10
48.771336
 20
55.323527
 30
0.0
 11
41.216515
 21
47.768706
 31
0.0
  0
SPLINE
  5
16a
100
AcDbEntity
  8
Layer_1
 62
7
100
AcDbSpline
 70
8
 71
3
 72
8
 73
4
 74
0
 40
0
 40
0
 40
0
 40
0
 40
1
 40
1
 40
1
 40
1
 10
46.012907
 20
31.039905
 30
0.0
 10
46.012908
 20
29.367604
 30
0.0
 10
44.657241
 20
28.011935
 30
0.0
 10
42.984939
 20
28.011934
 30
0.0
  0
SPLINE
  5
16b
100
AcDbEntity
  8
Layer_1
 62
7
100
AcDbSpline
 70
8
 71
3
 72
8
 73
4
 74
0
 40
0
 40
0
 40
0
 40
0
 40
1
 40
1
 40
1
 40
1
 10
42.984939
 20
28.011934
 30
0.0
 10
42.181871
 20
28.011934
 30
0.0
 10
41.411695
 20
28.330951
 30
0.0
 10
40.843840
 20
28.898806
 30
0.0
  0
SPLINE
  5
16c
100
AcDbEntity
  8
Layer_1
 62
7
100
AcDbSpline
 70
8
 71
3
 72
8
 73
4
 74
0
 40
0
 40
0
 40
0
 40
0
 40
1
 40
1
 40
1
 40
1
 10
40.843840
 20
28.898806
 30
0.0
 10
40.275986
 20
29.466661
 30
0.0
 10
39.956968
 20
30.236837
 30
0.0
 10
39.956969
 20
31.039905
 30
0.0
  0
SPLINE
  5
16d
100
AcDbEntity
  8
Layer_1
 62
7
100
AcDbSpline
 70
8
 71
3
 72
8
 73
4
 74
0
 40
0
 40
0
 40
0
 40
0
 40
1
 40
1
 40
1
 40
1
 10
39.956969
 20
31.039905
 30
0.0
 10
39.956969
 20
31.842972
 30
0.0
 10
40.275987
 20
32.613148
 30
0.0
 10
40.843841
 20
33.181002
 30
0.0
  0
SPLINE
  5
16e
100
AcDbEntity
  8
Layer_1
 62
7
100
AcDbSpline
 70
8
 71
3
 72
8
 73
4
 74
0
 40
0
 40
0
 40
0
 40
0
 40
1
 40
1
 40
1
 40
1
 10
40.843841
 20
33.181002
 30
0.0
 10
41.411696
 20
33.748856
 30
0.0
 10
42.181872
 20
34.067873
 30
0.0
 10
42.984939
 20
34.067873
 30
0.0
  0
SPLINE
  5
16f
100
AcDbEntity
  8
Layer_1
 62
7
100
AcDbSpline
 70
8
 71
3
 72
8
 73
4
 74
0
 40
0
 40
0
 40
0
 40
0
 40
1
 40
1
 40
1
 40
1
 10
42.984939
 20
34.067873
 30
0.0
 10
44.657239
 20
34.067872
 30
0.0
 10
46.012906
 20
32.712205
 30
0.0
 10
46.012907
 20
31.039905
 30
0.0
  0
LINE
  5
170
100
AcDbEntity
  8
Layer_1
 62
7
100
AcDbLine
 10
46.012907
 20
31.039905
 30
0.0
 11
46.012907
 21
31.039905
 31
0.0
  0
LINE
  5
171
100
AcDbEntity
  8
Layer_1
 62
7
100
AcDbLine
 10
42.984939
 20
33.509349
 30
0.0
 11
42.984939
 21
28.570460
 31
0.0
  0
LINE
  5
172
100
AcDbEntity
  8
Layer_1
 62
7
100
AcDbLine
 10
45.454384
 20
31.039905
 30
0.0
 11
40.515495
 21
31.039905
 31
0.0
  0
SPLINE
  5
173
100
AcDbEntity
  8
Layer_1
 62
7
100
AcDbSpline
 70
8
 71
3
 72
8
 73
4
 74
0
 40
0
 40
0
 40
0
 40
0
 40
1
 40
1
 40
1
 40
1
 10
72.462524
 20
82.595038
 30
0.0
 10
73.111117
 20
81.946445
 30
0.0
 10
73.475493
 20
81.066764
 30
0.0
 10
73.475493
 20
80.149514
 30
0.0
  0
SPLINE
  5
174
100
AcDbEntity
  8
Layer_1
 62
7
100
AcDbSpline
 70
8
 71
3
 72
8
 73
4
 74
0
 40
0
 40
0
 40
0
 40
0
 40
1
 40
1
 40
1
 40
1
 10
73.475493
 20
80.149514
 30
0.0
 10
73.475493
 20
79.232265
 30
0.0
 10
73.111117
 20
78.352584
 30
0.0
 10
72.462524
 20
77.703991
 30
0.0
  0
SPLINE
  5
175
100
AcDbEntity
  8
Layer_1
 62
7
100
AcDbSpline
 70
8
 71
3
 72
8
 73
4
 74
0
 40
0
 40
0
 40
0
 40
0
 40
1
 40
1
 40
1
 40
1
 10
72.462524
 20
77.703991
 30
0.0
 10
71.813931
 20
77.055398
 30
0.0
 10
70.934250
 20
76.691022
 30
0.0
 10
70.017000
 20
76.691022
 30
0.0
  0
SPLINE
  5
176
100
AcDbEntity
  8
Layer_1
 62
7
100
AcDbSpline
 70
8
 71
3
 72
8
 73
4
 74
0
 40
0
 40
0
 40
0
 40
0
 40
1
 40
1
 40
1
 40
1
 10
70.017000
 20
76.691022
 30
0.0
 10
69.099751
 20
76.691022
 30
0.0
 10
68.220070
 20
77.055398
 30
0.0
 10
67.571477
 20
77.703991
 30
0.0
  0
SPLINE
  5
177
100
AcDbEntity
  8
Layer_1
 62
7
100
AcDbSpline
 70
8
 71
3
 72
8
 73
4
 74
0
 40
0
 40
0
 40
0
 40
0
 40
1
 40
1
 40
1
 40
1
 10
67.571477
 20
77.703991
 30
0.0
 10
66.922884
 20
78.352584
 30
0.0
 10
66.558508
 20
79.232265
 30
0.0
 10
66.558508
 20
80.149514
 30
0.0
  0
SPLINE
  5
178
100
AcDbEntity
  8
Layer_1
 62
7
100
AcDbSpline
 70
8
 71
3
 72
8
 73
4
 74
0
 40
0
 40
0
 40
0
 40
0
 40
1
 40
1
 40
1
 40
1
 10
66.558508
 20
80.149514
 30
0.0
 10
66.558508
 20
81.066764
 30
0.0
 10
66.922884
 20
81.946445
 30
0.0
 10
67.571477
 20
82.595038
 30
0.0
  0
SPLINE
  5
179
100
AcDbEntity
  8
Layer_1
 62
7
100
AcDbSpline
 70
8
 71
3
 72
8
 73
4
 74
0
 40
0
 40
0
 40
0
 40
0
 40
1
 40
1
 40
1
 40
1
 10
67.571477
 20
82.595038
 30
0.0
 10
68.220070
 20
83.243631
 30
0.0
 10
69.099751
 20
83.608007
 30
0.0
 10
70.017001
 20
83.608007
 30
0.0
  0
SPLINE
  5
17a
100
AcDbEntity
  8
Layer_1
 62
7
100
AcDbSpline
 70
8
 71
3
 72
8
 73
4
 74
0
 40
0
 40
0
 40
0
 40
0
 40
1
 40
1
 40
1
 40
1
 10
70.017001
 20
83.608007
 30
0.0
 10
70.934250
 20
83.608007
 30
0.0
 10
71.813931
 20
83.243631
 30
0.0
 10
72.462524
 20
82.595038
 30
0.0
  0
LINE
  5
17b
100
AcDbEntity
  8
Layer_1
 62
7
100
AcDbLine
 10
72.462524
 20
82.595038
 30
0.0
 11
72.462524
 21
82.595038
 31
0.0
  0
LINE
  5
17c
100
AcDbEntity
  8
Layer_1
 62
7
100
AcDbLine
 10
66.239590
 20
83.926924
 30
0.0
 11
73.794411
 21
76.372103
 31
0.0
  0
LINE
  5
17d
100
AcDbEntity
  8
Layer_1
 62
7
100
AcDbLine
 10
73.794411
 20
83.926924
 30
0.0
 11
66.239590
 21
76.372103
 31
0.0
  0
SPLINE
  5
17e
100
AcDbEntity
  8
Layer_1
 62
7
100
AcDbSpline
 70
8
 71
3
 72
8
 73
4
 74
0
 40
0
 40
0
 40
0
 40
0
 40
1
 40
1
 40
1
 40
1
 10
72.439452
 20
53.991641
 30
0.0
 10
73.088045
 20
53.343047
 30
0.0
 10
73.452421
 20
52.463366
 30
0.0
 10
73.452421
 20
51.546117
 30
0.0
  0
SPLINE
  5
17f
100
AcDbEntity
  8
Layer_1
 62
7
100
AcDbSpline
 70
8
 71
3
 72
8
 73
4
 74
0
 40
0
 40
0
 40
0
 40
0
 40
1
 40
1
 40
1
 40
1
 10
73.452421
 20
51.546117
 30
0.0
 10
73.452421
 20
50.628868
 30
0.0
 10
73.088045
 20
49.749187
 30
0.0
 10
72.439452
 20
49.100594
 30
0.0
  0
SPLINE
  5
180
100
AcDbEntity
  8
Layer_1
 62
7
100
AcDbSpline
 70
8
 71
3
 72
8
 73
4
 74
0
 40
0
 40
0
 40
0
 40
0
 40
1
 40
1
 40
1
 40
1
 10
72.439452
 20
49.100594
 30
0.0
 10
71.790859
 20
48.452001
 30
0.0
 10
70.911178
 20
48.087625
 30
0.0
 10
69.993929
 20
48.087625
 30
0.0
  0
SPLINE
  5
181
100
AcDbEntity
  8
Layer_1
 62
7
100
AcDbSpline
 70
8
 71
3
 72
8
 73
4
 74
0
 40
0
 40
0
 40
0
 40
0
 40
1
 40
1
 40
1
 40
1
 10
69.993929
 20
48.087625
 30
0.0
 10
69.076680
 20
48.087625
 30
0.0
 10
68.196999
 20
48.452001
 30
0.0
 10
67.548406
 20
49.100594
 30
0.0
  0
SPLINE
  5
182
100
AcDbEntity
  8
Layer_1
 62
7
100
AcDbSpline
 70
8
 71
3
 72
8
 73
4
 74
0
 40
0
 40
0
 40
0
 40
0
 40
1
 40
1
 40
1
 40
1
 10
67.548406
 20
49.100594
 30
0.0
 10
66.899812
 20
49.749187
 30
0.0
 10
66.535437
 20
50.628868
 30
0.0
 10
66.535437
 20
51.546117
 30
0.0
  0
SPLINE
  5
183
100
AcDbEntity
  8
Layer_1
 62
7
100
AcDbSpline
 70
8
 71
3
 72
8
 73
4
 74
0
 40
0
 40
0
 40
0
 40
0
 40
1
 40
1
 40
1
 40
1
 10
66.535437
 20
51.546117
 30
0.0
 10
66.535437
 20
52.463366
 30
0.0
 10
66.899812
 20
53.343047
 30
0.0
 10
67.548406
 20
53.991641
 30
0.0
  0
SPLINE
  5
184
100
AcDbEntity
  8
Layer_1
 62
7
100
AcDbSpline
 70
8
 71
3
 72
8
 73
4
 74
0
 40
0
 40
0
 40
0
 40
0
 40
1
 40
1
 40
1
 40
1
 10
67.548406
 20
53.991641
 30
0.0
 10
68.196999
 20
54.640234
 30
0.0
 10
69.076680
 20
55.004610
 30
0.0
 10
69.993929
 20
55.004610
 30
0.0
  0
SPLINE
  5
185
100
AcDbEntity
  8
Layer_1
 62
7
100
AcDbSpline
 70
8
 71
3
 72
8
 73
4
 74
0
 40
0
 40
0
 40
0
 40
0
 40
1
 40
1
 40
1
 40
1
 10
69.993929
 20
55.004610
 30
0.0
 10
70.911178
 20
55.004610
 30
0.0
 10
71.790859
 20
54.640234
 30
0.0
 10
72.439452
 20
53.991641
 30
0.0
  0
LINE
  5
186
100
AcDbEntity
  8
Layer_1
 62
7
100
AcDbLine
 10
72.439452
 20
53.991641
 30
0.0
 11
72.439452
 21
53.991641
 31
0.0
  0
LINE
  5
187
100
AcDbEntity
  8
Layer_1
 62
7
100
AcDbLine
 10
66.216519
 20
55.323527
 30
0.0
 11
73.771339
 21
47.768706
 31
0.0
  0
LINE
  5
188
100
AcDbEntity
  8
Layer_1
 62
7
100
AcDbLine
 10
73.771339
 20
55.323527
 30
0.0
 11
66.216519
 21
47.768706
 31
0.0
  0
SPLINE
  5
189
100
AcDbEntity
  8
Layer_1
 62
7
100
AcDbSpline
 70
8
 71
3
 72
8
 73
4
 74
0
 40
0
 40
0
 40
0
 40
0
 40
1
 40
1
 40
1
 40
1
 10
71.012911
 20
31.039905
 30
0.0
 10
71.012912
 20
29.367604
 30
0.0
 10
69.657244
 20
28.011935
 30
0.0
 10
67.984943
 20
28.011934
 30
0.0
  0
SPLINE
  5
18a
100
AcDbEntity
  8
Layer_1
 62
7
100
AcDbSpline
 70
8
 71
3
 72
8
 73
4
 74
0
 40
0
 40
0
 40
0
 40
0
 40
1
 40
1
 40
1
 40
1
 10
67.984943
 20
28.011934
 30
0.0
 10
67.181875
 20
28.011934
 30
0.0
 10
66.411699
 20
28.330951
 30
0.0
 10
65.843844
 20
28.898806
 30
0.0
  0
SPLINE
  5
18b
100
AcDbEntity
  8
Layer_1
 62
7
100
AcDbSpline
 70
8
 71
3
 72
8
 73
4
 74
0
 40
0
 40
0
 40
0
 40
0
 40
1
 40
1
 40
1
 40
1
 10
65.843844
 20
28.898806
 30
0.0
 10
65.275989
 20
29.466661
 30
0.0
 10
64.956972
 20
30.236837
 30
0.0
 10
64.956972
 20
31.039905
 30
0.0
  0
SPLINE
  5
18c
100
AcDbEntity
  8
Layer_1
 62
7
100
AcDbSpline
 70
8
 71
3
 72
8
 73
4
 74
0
 40
0
 40
0
 40
0
 40
0
 40
1
 40
1
 40
1
 40
1
 10
64.956972
 20
31.039905
 30
0.0
 10
64.956973
 20
31.842972
 30
0.0
 10
65.275990
 20
32.613148
 30
0.0
 10
65.843845
 20
33.181002
 30
0.0
  0
SPLINE
  5
18d
100
AcDbEntity
  8
Layer_1
 62
7
100
AcDbSpline
 70
8
 71
3
 72
8
 73
4
 74
0
 40
0
 40
0
 40
0
 40
0
 40
1
 40
1
 40
1
 40
1
 10
65.843845
 20
33.181002
 30
0.0
 10
66.411700
 20
33.748856
 30
0.0
 10
67.181876
 20
34.067873
 30
0.0
 10
67.984943
 20
34.067873
 30
0.0
  0
SPLINE
  5
18e
100
AcDbEntity
  8
Layer_1
 62
7
100
AcDbSpline
 70
8
 71
3
 72
8
 73
4
 74
0
 40
0
 40
0
 40
0
 40
0
 40
1
 40
1
 40
1
 40
1
 10
67.984943
 20
34.067873
 30
0.0
 10
69.657243
 20
34.067872
 30
0.0
 10
71.012910
 20
32.712205
 30
0.0
 10
71.012911
 20
31.039905
 30
0.0
  0
LINE
  5
18f
100
AcDbEntity
  8
Layer_1
 62
7
100
AcDbLine
 10
71.012911
 20
31.039905
 30
0.0
 11
71.012911
 21
31.039905
 31
0.0
  0
LINE
  5
190
100
AcDbEntity
  8
Layer_1
 62
7
100
AcDbLine
 10
67.984943
 20
33.509349
 30
0.0
 11
67.984943
 21
28.570460
 31
0.0
  0
LINE
  5
191
100
AcDbEntity
  8
Layer_1
 62
7
100
AcDbLine
 10
70.454387
 20
31.039905
 30
0.0
 11
65.515498
 21
31.039905
 31
0.0
  0
SPLINE
  5
192
100
AcDbEntity
  8
Layer_1
 62
7
100
AcDbSpline
 70
8
 71
3
 72
8
 73
4
 74
0
 40
0
 40
0
 40
0
 40
0
 40
1
 40
1
 40
1
 40
1
 10
97.462527
 20
82.595038
 30
0.0
 10
98.111121
 20
81.946445
 30
0.0
 10
98.475496
 20
81.066764
 30
0.0
 10
98.475496
 20
80.149514
 30
0.0
  0
SPLINE
  5
193
100
AcDbEntity
  8
Layer_1
 62
7
100
AcDbSpline
 70
8
 71
3
 72
8
 73
4
 74
0
 40
0
 40
0
 40
0
 40
0
 40
1
 40
1
 40
1
 40
1
 10
98.475496
 20
80.149514
 30
0.0
 10
98.475496
 20
79.232265
 30
0.0
 10
98.111120
 20
78.352584
 30
0.0
 10
97.462527
 20
77.703991
 30
0.0
  0
SPLINE
  5
194
100
AcDbEntity
  8
Layer_1
 62
7
100
AcDbSpline
 70
8
 71
3
 72
8
 73
4
 74
0
 40
0
 40
0
 40
0
 40
0
 40
1
 40
1
 40
1
 40
1
 10
97.462527
 20
77.703991
 30
0.0
 10
96.813934
 20
77.055398
 30
0.0
 10
95.934253
 20
76.691022
 30
0.0
 10
95.017004
 20
76.691022
 30
0.0
  0
SPLINE
  5
195
100
AcDbEntity
  8
Layer_1
 62
7
100
AcDbSpline
 70
8
 71
3
 72
8
 73
4
 74
0
 40
0
 40
0
 40
0
 40
0
 40
1
 40
1
 40
1
 40
1
 10
95.017004
 20
76.691022
 30
0.0
 10
94.099755
 20
76.691022
 30
0.0
 10
93.220074
 20
77.055398
 30
0.0
 10
92.571481
 20
77.703991
 30
0.0
  0
SPLINE
  5
196
100
AcDbEntity
  8
Layer_1
 62
7
100
AcDbSpline
 70
8
 71
3
 72
8
 73
4
 74
0
 40
0
 40
0
 40
0
 40
0
 40
1
 40
1
 40
1
 40
1
 10
92.571481
 20
77.703991
 30
0.0
 10
91.922888
 20
78.352584
 30
0.0
 10
91.558512
 20
79.232265
 30
0.0
 10
91.558512
 20
80.149514
 30
0.0
  0
SPLINE
  5
197
100
AcDbEntity
  8
Layer_1
 62
7
100
AcDbSpline
 70
8
 71
3
 72
8
 73
4
 74
0
 40
0
 40
0
 40
0
 40
0
 40
1
 40
1
 40
1
 40
1
 10
91.558512
 20
80.149514
 30
0.0
 10
91.558512
 20
81.066764
 30
0.0
 10
91.922888
 20
81.946445
 30
0.0
 10
92.571481
 20
82.595038
 30
0.0
  0
SPLINE
  5
198
100
AcDbEntity
  8
Layer_1
 62
7
100
AcDbSpline
 70
8
 71
3
 72
8
 73
4
 74
0
 40
0
 40
0
 40
0
 40
0
 40
1
 40
1
 40
1
 40
1
 10
92.571481
 20
82.595038
 30
0.0
 10
93.220074
 20
83.243631
 30
0.0
 10
94.099755
 20
83.608007
 30
0.0
 10
95.017004
 20
83.608007
 30
0.0
  0
SPLINE
  5
199
100
AcDbEntity
  8
Layer_1
 62
7
100
AcDbSpline
 70
8
 71
3
 72
8
 73
4
 74
0
 40
0
 40
0
 40
0
 40
0
 40
1
 40
1
 40
1
 40
1
 10
95.017004
 20
83.608007
 30
0.0
 10
95.934253
 20
83.608007
 30
0.0
 10
96.813934
 20
83.243631
 30
0.0
 10
97.462527
 20
82.595038
 30
0.0
  0
LINE
  5
19a
100
AcDbEntity
  8
Layer_1
 62
7
100
AcDbLine
 10
97.462527
 20
82.595038
 30
0.0
 11
97.462527
 21
82.595038
 31
0.0
  0
LINE
  5
19b
100
AcDbEntity
  8
Layer_1
 62
7
100
AcDbLine
 10
91.239594
 20
83.926924
 30
0.0
 11
98.794415
 21
76.372103
 31
0.0
  0
LINE
  5
19c
100
AcDbEntity
  8
Layer_1
 62
7
100
AcDbLine
 10
98.794415
 20
83.926924
 30
0.0
 11
91.239594
 21
76.372103
 31
0.0
  0
SPLINE
  5
19d
100
AcDbEntity
  8
Layer_1
 62
7
100
AcDbSpline
 70
8
 71
3
 72
8
 73
4
 74
0
 40
0
 40
0
 40
0
 40
0
 40
1
 40
1
 40
1
 40
1
 10
97.439456
 20
53.991641
 30
0.0
 10
98.088049
 20
53.343047
 30
0.0
 10
98.452425
 20
52.463366
 30
0.0
 10
98.452425
 20
51.546117
 30
0.0
  0
SPLINE
  5
19e
100
AcDbEntity
  8
Layer_1
 62
7
100
AcDbSpline
 70
8
 71
3
 72
8
 73
4
 74
0
 40
0
 40
0
 40
0
 40
0
 40
1
 40
1
 40
1
 40
1
 10
98.452425
 20
51.546117
 30
0.0
 10
98.452425
 20
50.628868
 30
0.0
 10
98.088049
 20
49.749187
 30
0.0
 10
97.439456
 20
49.100594
 30
0.0
  0
SPLINE
  5
19f
100
AcDbEntity
  8
Layer_1
 62
7
100
AcDbSpline
 70
8
 71
3
 72
8
 73
4
 74
0
 40
0
 40
0
 40
0
 40
0
 40
1
 40
1
 40
1
 40
1
 10
97.439456
 20
49.100594
 30
0.0
 10
96.790863
 20
48.452001
 30
0.0
 10
95.911182
 20
48.087625
 30
0.0
 10
94.993932
 20
48.087625
 30
0.0
  0
SPLINE
  5
1a0
100
AcDbEntity
  8
Layer_1
 62
7
100
AcDbSpline
 70
8
 71
3
 72
8
 73
4
 74
0
 40
0
 40
0
 40
0
 40
0
 40
1
 40
1
 40
1
 40
1
 10
94.993932
 20
48.087625
 30
0.0
 10
94.076683
 20
48.087625
 30
0.0
 10
93.197002
 20
48.452001
 30
0.0
 10
92.548409
 20
49.100594
 30
0.0
  0
SPLINE
  5
1a1
100
AcDbEntity
  8
Layer_1
 62
7
100
AcDbSpline
 70
8
 71
3
 72
8
 73
4
 74
0
 40
0
 40
0
 40
0
 40
0
 40
1
 40
1
 40
1
 40
1
 10
92.548409
 20
49.100594
 30
0.0
 10
91.899816
 20
49.749187
 30
0.0
 10
91.535440
 20
50.628868
 30
0.0
 10
91.535440
 20
51.546117
 30
0.0
  0
SPLINE
  5
1a2
100
AcDbEntity
  8
Layer_1
 62
7
100
AcDbSpline
 70
8
 71
3
 72
8
 73
4
 74
0
 40
0
 40
0
 40
0
 40
0
 40
1
 40
1
 40
1
 40
1
 10
91.535440
 20
51.546117
 30
0.0
 10
91.535440
 20
52.463366
 30
0.0
 10
91.899816
 20
53.343047
 30
0.0
 10
92.548409
 20
53.991641
 30
0.0
  0
SPLINE
  5
1a3
100
AcDbEntity
  8
Layer_1
 62
7
100
AcDbSpline
 70
8
 71
3
 72
8
 73
4
 74
0
 40
0
 40
0
 40
0
 40
0
 40
1
 40
1
 40
1
 40
1
 10
92.548409
 20
53.991641
 30
0.0
 10
93.197002
 20
54.640234
 30
0.0
 10
94.076683
 20
55.004610
 30
0.0
 10
94.993933
 20
55.004610
 30
0.0
  0
SPLINE
  5
1a4
100
AcDbEntity
  8
Layer_1
 62
7
100
AcDbSpline
 70
8
 71
3
 72
8
 73
4
 74
0
 40
0
 40
0
 40
0
 40
0
 40
1
 40
1
 40
1
 40
1
 10
94.993933
 20
55.004610
 30
0.0
 10
95.911182
 20
55.004610
 30
0.0
 10
96.790863
 20
54.640234
 30
0.0
 10
97.439456
 20
53.991641
 30
0.0
  0
LINE
  5
1a5
100
AcDbEntity
  8
Layer_1
 62
7
100
AcDbLine
 10
97.439456
 20
53.991641
 30
0.0
 11
97.439456
 21
53.991641
 31
0.0
  0
LINE
  5
1a6
100
AcDbEntity
  8
Layer_1
 62
7
100
AcDbLine
 10
91.216522
 20
55.323527
 30
0.0
 11
98.771343
 21
47.768706
 31
0.0
  0
LINE
  5
1a7
100
AcDbEntity
  8
Layer_1
 62
7
100
AcDbLine
 10
98.771343
 20
55.323527
 30
0.0
 11
91.216522
 21
47.768706
 31
0.0
  0
SPLINE
  5
1a8
100
AcDbEntity
  8
Layer_1
 62
7
100
AcDbSpline
 70
8
 71
3
 72
8
 73
4
 74
0
 40
0
 40
0
 40
0
 40
0
 40
1
 40
1
 40
1
 40
1
 10
96.012914
 20
31.039905
 30
0.0
 10
96.012915
 20
29.367604
 30
0.0
 10
94.657248
 20
28.011935
 30
0.0
 10
92.984947
 20
28.011934
 30
0.0
  0
SPLINE
  5
1a9
100
AcDbEntity
  8
Layer_1
 62
7
100
AcDbSpline
 70
8
 71
3
 72
8
 73
4
 74
0
 40
0
 40
0
 40
0
 40
0
 40
1
 40
1
 40
1
 40
1
 10
92.984947
 20
28.011934
 30
0.0
 10
92.181879
 20
28.011934
 30
0.0
 10
91.411702
 20
28.330951
 30
0.0
 10
90.843848
 20
28.898806
 30
0.0
  0
SPLINE
  5
1aa
100
AcDbEntity
  8
Layer_1
 62
7
100
AcDbSpline
 70
8
 71
3
 72
8
 73
4
 74
0
 40
0
 40
0
 40
0
 40
0
 40
1
 40
1
 40
1
 40
1
 10
90.843848
 20
28.898806
 30
0.0
 10
90.275993
 20
29.466661
 30
0.0
 10
89.956975
 20
30.236837
 30
0.0
 10
89.956976
 20
31.039905
 30
0.0
  0
SPLINE
  5
1ab
100
AcDbEntity
  8
Layer_1
 62
7
100
AcDbSpline
 70
8
 71
3
 72
8
 73
4
 74
0
 40
0
 40
0
 40
0
 40
0
 40
1
 40
1
 40
1
 40
1
 10
89.956976
 20
31.039905
 30
0.0
 10
89.956976
 20
31.842972
 30
0.0
 10
90.275994
 20
32.613148
 30
0.0
 10
90.843849
 20
33.181002
 30
0.0
  0
SPLINE
  5
1ac
100
AcDbEntity
  8
Layer_1
 62
7
100
AcDbSpline
 70
8
 71
3
 72
8
 73
4
 74
0
 40
0
 40
0
 40
0
 40
0
 40
1
 40
1
 40
1
 40
1
 10
90.843849
 20
33.181002
 30
0.0
 10
91.411703
 20
33.748856
 30
0.0
 10
92.181879
 20
34.067873
 30
0.0
 10
92.984947
 20
34.067873
 30
0.0
  0
SPLINE
  5
1ad
100
AcDbEntity
  8
Layer_1
 62
7
100
AcDbSpline
 70
8
 71
3
 72
8
 73
4
 74
0
 40
0
 40
0
 40
0
 40
0
 40
1
 40
1
 40
1
 40
1
 10
92.984947
 20
34.067873
 30
0.0
 10
94.657247
 20
34.067872
 30
0.0
 10
96.012914
 20
32.712205
 30
0.0
 10
96.012914
 20
31.039905
 30
0.0
  0
LINE
  5
1ae
100
AcDbEntity
  8
Layer_1
 62
7
100
AcDbLine
 10
96.012914
 20
31.039905
 30
0.0
 11
96.012914
 21
31.039905
 31
0.0
  0
LINE
  5
1af
100
AcDbEntity
  8
Layer_1
 62
7
100
AcDbLine
 10
92.984947
 20
33.509349
 30
0.0
 11
92.984947
 21
28.570460
 31
0.0
  0
LINE
  5
1b0
100
AcDbEntity
  8
Layer_1
 62
7
100
AcDbLine
 10
95.454391
 20
31.039905
 30
0.0
 11
90.515502
 21
31.039905
 31
0.0
  0
ENDSEC
  0
SECTION
  2
OBJECTS
  0
DICTIONARY
  5
C
330
0
100
AcDbDictionary
  3
ACAD_GROUP
350
D
  3
ACAD_MLINESTYLE
350
17
  0
DICTIONARY
  5
D
330
C
100
AcDbDictionary
  0
DICTIONARY
  5
1A
330
C
100
AcDbDictionary
  0
DICTIONARY
  5
17
330
C
100
AcDbDictionary
  3
STANDARD
350
18
  0
DICTIONARY
  5
19
330
C
100
AcDbDictionary
  0
ENDSEC
  0
EOF
